<?xml version="1.0" encoding="UTF-8" standalone="no"?>
<!-- Created with Inkscape (http://www.inkscape.org/) -->

<svg
   width="90mm"
   height="55mm"
   viewBox="0 0 99 60.5"
   version="1.1"
   id="svg5"
   sodipodi:docname="SGS.svg"
   inkscape:version="1.1.2 (b8e25be8, 2022-02-05)"
   xmlns:inkscape="http://www.inkscape.org/namespaces/inkscape"
   xmlns:sodipodi="http://sodipodi.sourceforge.net/DTD/sodipodi-0.dtd"
   xmlns="http://www.w3.org/2000/svg"
   xmlns:svg="http://www.w3.org/2000/svg">
  <sodipodi:namedview
     id="namedview7"
     pagecolor="#ffffff"
     bordercolor="#666666"
     borderopacity="1.0"
     inkscape:pageshadow="2"
     inkscape:pageopacity="0.0"
     inkscape:pagecheckerboard="0"
     inkscape:document-units="mm"
     showgrid="false"
     inkscape:zoom="1.1559113"
     inkscape:cx="175.18646"
     inkscape:cy="202.00513"
     inkscape:window-width="1312"
     inkscape:window-height="847"
     inkscape:window-x="0"
     inkscape:window-y="25"
     inkscape:window-maximized="0"
     inkscape:current-layer="layer1"
     units="mm"
     scale-x="1.1" />
  <defs
     id="defs2" />
  <g
     inkscape:label="Layer 1"
     inkscape:groupmode="layer"
     id="layer1">
    <path
       style="fill:#000000;stroke-width:0.0320112"
       d="m 52.620394,54.895843 v -2.592356 h 0.357229 0.357229 v 0.210839 c 0,0.120475 0.01459,0.210834 0.03404,0.210834 0.01871,0 0.03404,-0.01112 0.03404,-0.02468 0,-0.06023 0.260173,-0.285366 0.404703,-0.3502 0.649734,-0.291486 1.393838,-0.07733 1.721737,0.49555 0.17522,0.306118 0.226321,0.562778 0.24583,1.234734 0.02687,0.925864 -0.0596,1.35551 -0.348585,1.731882 -0.237962,0.309928 -0.535413,0.444335 -0.986032,0.445548 -0.404262,0.0011 -0.773193,-0.168238 -0.940395,-0.431618 -0.04168,-0.06564 -0.08443,-0.119352 -0.09502,-0.119359 -0.01055,-8e-6 -0.01927,0.396445 -0.01927,0.881002 v 0.881006 l -0.382742,0.0096 -0.382747,0.0096 z m 1.936716,0.653039 c 0.203935,-0.09338 0.366928,-0.333049 0.416286,-0.612091 0.04534,-0.256351 0.01683,-1.363968 -0.0394,-1.52976 -0.06041,-0.178148 -0.229371,-0.401006 -0.356962,-0.470818 -0.17949,-0.0982 -0.415702,-0.110609 -0.615673,-0.03231 -0.282532,0.110606 -0.433005,0.275282 -0.524903,0.574436 -0.06003,0.195438 -0.04976,1.29024 0.01407,1.498703 0.08994,0.293797 0.288567,0.520185 0.531766,0.606111 0.153006,0.05406 0.416226,0.03837 0.574836,-0.03426 z m -34.516124,0.685573 c -0.543931,-0.104758 -0.887088,-0.409407 -1.069053,-0.949122 -0.06705,-0.198883 -0.07805,-0.312814 -0.09196,-0.952753 -0.01451,-0.667095 -0.0099,-0.74749 0.05588,-0.977816 0.191138,-0.669168 0.534444,-0.986953 1.188857,-1.100478 0.266821,-0.04628 0.522638,-0.03836 0.82164,0.02547 0.492013,0.105038 0.862404,0.450339 1.043143,0.972492 0.05445,0.157317 0.06236,0.287982 0.06101,1.009007 -0.0017,0.809951 -0.0034,0.833459 -0.08988,1.061537 -0.20666,0.545666 -0.576459,0.842877 -1.150364,0.924557 -0.285652,0.04064 -0.51078,0.0369 -0.76927,-0.01289 z m 0.827084,-0.696411 c 0.187536,-0.123064 0.308785,-0.301014 0.369365,-0.542089 0.04788,-0.190516 0.05517,-0.34225 0.04231,-0.881494 -0.01386,-0.582198 -0.02321,-0.6667 -0.08815,-0.79576 -0.167225,-0.332313 -0.352143,-0.450434 -0.702123,-0.448505 -0.360001,0.0018 -0.57106,0.115681 -0.722814,0.389381 l -0.09615,0.173396 v 0.798173 c 0,0.769615 0.003,0.803675 0.07865,0.952005 0.08876,0.173589 0.279421,0.349776 0.431672,0.398879 0.170365,0.05494 0.576017,0.02897 0.687209,-0.04398 z m 6.678455,0.700204 c -0.424994,-0.08174 -0.763847,-0.309024 -0.964378,-0.646866 -0.221877,-0.373813 -0.243555,-0.495633 -0.242044,-1.360236 0.0013,-0.751011 0.0034,-0.773399 0.09237,-1.009007 0.107297,-0.284032 0.227869,-0.460103 0.446735,-0.652364 0.194292,-0.170664 0.396721,-0.258473 0.741515,-0.321643 0.217476,-0.03984 0.306082,-0.0421 0.528149,-0.01345 0.416345,0.05373 0.642872,0.142274 0.862721,0.337243 0.367009,0.325486 0.508183,0.727484 0.508183,1.447109 v 0.422947 h -1.212859 -1.212861 l 0.02124,0.265167 c 0.0446,0.556275 0.260409,0.835126 0.703956,0.909593 0.383948,0.06447 0.72153,-0.07598 0.866434,-0.360472 l 0.06191,-0.121538 h 0.386082 c 0.438207,0 0.422465,-0.0127 0.317877,0.256426 -0.09577,0.246424 -0.205951,0.40155 -0.39845,0.56096 -0.328701,0.272201 -0.957793,0.391673 -1.506596,0.286129 z m 1.18377,-2.609025 c -0.01982,-0.303075 -0.145924,-0.542482 -0.353916,-0.671899 -0.182875,-0.113788 -0.487904,-0.14346 -0.7084,-0.06891 -0.16677,0.05639 -0.374079,0.239764 -0.447916,0.39622 -0.05571,0.118021 -0.125209,0.517141 -0.09707,0.557439 0.01082,0.01552 0.3713,0.02764 0.821164,0.02764 h 0.80187 z m 2.440483,2.61794 c -0.588467,-0.0871 -0.94106,-0.37888 -1.093209,-0.904659 -0.0291,-0.100582 -0.04786,-0.187211 -0.04168,-0.192516 0.0061,-0.0053 0.168108,-0.01942 0.359856,-0.03137 l 0.348628,-0.02176 0.04987,0.105662 c 0.07137,0.151226 0.20942,0.286053 0.371361,0.362696 0.120221,0.05689 0.193905,0.06641 0.514551,0.06645 0.433561,0 0.561645,-0.03966 0.697441,-0.216252 0.06943,-0.09028 0.08505,-0.146982 0.08505,-0.308588 0,-0.366655 -0.146912,-0.458337 -0.969617,-0.605104 -0.633264,-0.112973 -0.883291,-0.208535 -1.09753,-0.419494 -0.208634,-0.20544 -0.275601,-0.404869 -0.256684,-0.764405 0.02918,-0.554756 0.341371,-0.894399 0.962965,-1.047688 0.207609,-0.05119 0.847602,-0.05306 1.096475,-0.003 0.559009,0.112003 0.955785,0.478821 1.00074,0.925181 l 0.01215,0.120382 -0.399751,0.0085 c -0.356764,0.0076 -0.399754,0.003 -0.399754,-0.04254 0,-0.09121 -0.17,-0.310677 -0.282,-0.364064 -0.159126,-0.07585 -0.74116,-0.07506 -0.914367,0.0011 -0.270489,0.119153 -0.378901,0.416334 -0.238345,0.653355 0.08785,0.148146 0.240423,0.203926 0.791088,0.28922 0.966567,0.149717 1.359957,0.399515 1.487213,0.944353 0.0454,0.194376 0.04874,0.277379 0.01858,0.46264 -0.08978,0.55169 -0.479713,0.890774 -1.134348,0.986404 -0.223913,0.03272 -0.733452,0.03036 -0.968652,-0.0044 z m 11.18705,-0.02517 c -0.404523,-0.102495 -0.722827,-0.342626 -0.901024,-0.679753 -0.169975,-0.321571 -0.20588,-0.553539 -0.207605,-1.341206 l -0.0017,-0.707812 0.106522,-0.288373 c 0.219118,-0.593194 0.591801,-0.874836 1.267758,-0.958073 0.339517,-0.04181 0.8022,0.01834 1.064657,0.138397 0.176159,0.08058 0.433023,0.319656 0.534327,0.497324 0.10564,0.185276 0.198965,0.488137 0.19979,0.648373 l 4.29e-4,0.09789 h -0.391244 -0.391249 l -3.86e-4,-0.09789 c -8.81e-4,-0.215099 -0.260439,-0.547618 -0.48669,-0.623138 -0.139835,-0.04667 -0.448604,-0.03905 -0.593789,0.01466 -0.422128,0.156152 -0.543719,0.538263 -0.505909,1.58986 0.01738,0.483851 0.02742,0.55254 0.101303,0.692754 0.135298,0.256836 0.281464,0.363749 0.561614,0.410783 0.478846,0.0804 0.864725,-0.186994 0.943833,-0.654017 l 0.02172,-0.128215 h 0.380906 0.380906 l -0.02644,0.218368 c -0.06121,0.505567 -0.325084,0.887979 -0.742971,1.076718 -0.332397,0.15013 -0.92494,0.192192 -1.31503,0.09336 z m 7.617827,0.01169 c -0.444645,-0.08552 -0.769231,-0.305301 -0.987152,-0.668403 -0.233819,-0.389581 -0.279924,-0.765599 -0.265139,-2.162421 0.01211,-1.146024 0.03879,-1.337382 0.240255,-1.723826 0.284665,-0.546059 0.876223,-0.83496 1.598929,-0.780878 0.376271,0.02817 0.605143,0.120464 0.887543,0.357954 0.496867,0.417845 0.590025,0.79697 0.590399,2.402767 3.86e-4,1.00265 -0.04125,1.422945 -0.170821,1.731881 -0.28637,0.682641 -1.022971,1.010465 -1.894014,0.842926 z m 0.646902,-0.648961 c 0.278821,-0.06856 0.498996,-0.337741 0.569524,-0.696323 0.02554,-0.129778 0.03437,-0.604523 0.02665,-1.427332 -0.01112,-1.180333 -0.01476,-1.239694 -0.08496,-1.392783 -0.155666,-0.339395 -0.374308,-0.489453 -0.718741,-0.493277 -0.296377,-0.0033 -0.586166,0.136114 -0.704671,0.338992 -0.134878,0.230915 -0.154397,0.406228 -0.165739,1.48886 -0.01253,1.194692 0.01001,1.537473 0.115592,1.754653 0.169464,0.348753 0.565815,0.524705 0.962359,0.42721 z m 6.86292,0.648153 c -0.575395,-0.142995 -0.857426,-0.376518 -1.072746,-0.88825 -0.09147,-0.217384 -0.09518,-0.248935 -0.110197,-0.938376 -0.01703,-0.781878 0.0071,-0.990725 0.151585,-1.3102 0.260079,-0.575154 0.742315,-0.856755 1.473638,-0.860534 0.66797,-0.0033 1.116683,0.233962 1.367393,0.723468 0.150466,0.293789 0.196339,0.53566 0.197009,1.038739 l 8.81e-4,0.444264 h -1.204078 -1.204079 l -0.02068,0.07306 c -0.02704,0.0953 0.03935,0.514162 0.102906,0.649493 0.181096,0.385594 0.559963,0.552619 1.028018,0.453209 0.196588,-0.04174 0.375554,-0.190337 0.450624,-0.374123 l 0.04447,-0.108875 h 0.401425 c 0.377197,0 0.401423,0.0038 0.401423,0.05955 0,0.110629 -0.171928,0.464886 -0.292262,0.602204 -0.147872,0.168752 -0.438537,0.34588 -0.671484,0.4092 -0.258142,0.07017 -0.812439,0.0846 -1.043523,0.02716 z m 1.244493,-2.43093 c -0.0086,-0.03727 -0.02519,-0.142318 -0.03691,-0.233428 -0.0406,-0.315573 -0.214278,-0.558447 -0.476116,-0.66577 -0.164417,-0.06739 -0.450812,-0.07364 -0.613715,-0.01337 -0.269481,0.09969 -0.47639,0.416643 -0.515784,0.790106 l -0.02008,0.190234 h 0.839095 0.839095 z m 5.814978,2.436873 c -0.317801,-0.07302 -0.540564,-0.212375 -0.682652,-0.427023 -0.239912,-0.362429 -0.267662,-0.94415 -0.06329,-1.326619 0.141844,-0.265453 0.48015,-0.482799 0.899033,-0.577598 0.107793,-0.02438 0.45231,-0.04952 0.812672,-0.05927 l 0.625559,-0.01695 -0.02219,-0.255678 c -0.02764,-0.318202 -0.121012,-0.498139 -0.324175,-0.624638 -0.13279,-0.08269 -0.168906,-0.09036 -0.425349,-0.09036 -0.249083,0 -0.29602,0.0093 -0.422307,0.08324 -0.08701,0.05097 -0.182905,0.147284 -0.247418,0.248487 l -0.105339,0.165251 h -0.17888 c -0.09839,0 -0.274433,-0.0088 -0.391214,-0.01965 l -0.212338,-0.01965 0.02103,-0.0933 c 0.03377,-0.149675 0.204107,-0.448099 0.325874,-0.570878 0.236758,-0.238731 0.502363,-0.351545 0.960475,-0.407953 0.664155,-0.08178 1.308959,0.135159 1.576702,0.530472 0.200351,0.295811 0.216918,0.442344 0.226591,2.004124 l 0.0087,1.408112 -0.362674,-1.6e-5 -0.362683,-1.5e-5 -0.02442,-0.259547 -0.02442,-0.259545 -0.09389,0.133543 c -0.119045,0.169327 -0.273087,0.28464 -0.507831,0.380165 -0.223818,0.09108 -0.728958,0.118846 -1.005594,0.05527 z m 1.126691,-0.664397 c 0.327518,-0.135008 0.455311,-0.378111 0.455311,-0.866144 v -0.296412 h -0.472722 c -0.374275,0 -0.51792,0.01237 -0.689806,0.05937 -0.400776,0.109587 -0.585346,0.377003 -0.500882,0.725677 0.07407,0.305762 0.315981,0.44831 0.761837,0.448912 0.215952,3.41e-4 0.308136,-0.01446 0.446262,-0.0714 z m 10.400549,0.658874 c -0.611837,-0.145955 -0.976818,-0.503484 -1.121477,-1.098554 -0.08218,-0.338088 -0.08072,-1.405114 0.0024,-1.731882 0.197565,-0.776922 0.712776,-1.159609 1.561193,-1.159609 0.676134,0 1.131706,0.237063 1.39413,0.725456 0.189549,0.352754 0.21136,0.492131 0.209388,1.337743 -0.0016,0.81687 -0.02733,0.974348 -0.208972,1.29161 -0.178502,0.311861 -0.594169,0.58419 -0.993171,0.650685 -0.25177,0.04197 -0.632007,0.03497 -0.843455,-0.01544 z m 0.813379,-0.66791 c 0.153508,-0.07936 0.3207,-0.283708 0.384268,-0.469624 0.07327,-0.214298 0.104521,-1.036026 0.05331,-1.402152 -0.07519,-0.537711 -0.35404,-0.819038 -0.81006,-0.817182 -0.32248,0.0015 -0.599445,0.183318 -0.729499,0.479399 -0.06429,0.146357 -0.07551,0.244287 -0.08897,0.775502 -0.02148,0.84844 0.03583,1.09783 0.304724,1.326367 0.06284,0.05338 0.175152,0.117631 0.249637,0.142781 0.173381,0.05853 0.489168,0.04112 0.63656,-0.03509 z m 6.745457,0.694272 c -0.58035,-0.08182 -0.862228,-0.24601 -1.080362,-0.62932 -0.07399,-0.130015 -0.179609,-0.461088 -0.153613,-0.481504 0.0048,-0.004 0.169741,-0.01217 0.365952,-0.01817 l 0.356749,-0.01098 0.06324,0.120479 c 0.162197,0.308981 0.429679,0.422679 0.94323,0.400941 0.360461,-0.01526 0.525825,-0.09351 0.640399,-0.303046 0.09092,-0.166266 0.0914,-0.299705 0.0016,-0.463748 -0.100992,-0.184682 -0.236588,-0.244591 -0.773788,-0.341859 -0.817202,-0.147966 -0.99342,-0.209531 -1.211546,-0.423281 -0.176571,-0.173027 -0.259883,-0.354422 -0.282063,-0.614181 -0.03728,-0.436145 0.138582,-0.803514 0.500695,-1.046013 0.4403,-0.294863 1.542555,-0.294776 2.038607,3.42e-4 0.277959,0.165269 0.513007,0.519956 0.513007,0.77413 v 0.104295 H 85.1646 84.776059 l -0.02156,-0.08683 c -0.03118,-0.125781 -0.237438,-0.324739 -0.379699,-0.366307 -0.195073,-0.05699 -0.687694,-0.02502 -0.832161,0.05403 -0.18211,0.09965 -0.280227,0.278407 -0.261645,0.476735 0.02654,0.283608 0.13851,0.345753 0.815078,0.452481 0.705121,0.111229 0.985876,0.220613 1.260613,0.491144 0.252219,0.248355 0.338271,0.652577 0.232964,1.094384 -0.07968,0.334101 -0.404613,0.631471 -0.819022,0.749436 -0.219721,0.06255 -0.891304,0.102046 -1.139714,0.06703 z m -48.012219,-0.07165 c -0.345397,-0.06205 -0.613959,-0.22342 -0.776077,-0.466339 -0.164907,-0.247097 -0.184657,-0.421324 -0.185202,-1.633587 l -4.28e-4,-1.121958 h -0.459289 -0.459292 v -0.331316 -0.331314 h 0.459292 0.459289 v -0.558168 -0.558172 l 0.399754,0.0085 0.399755,0.0085 -0.0026,0.549681 -0.0026,0.549686 h 0.725341 0.725337 v 0.331317 0.331313 h -0.709693 -0.709694 l -0.01876,0.160769 c -0.02862,0.245442 0.01044,2.010279 0.04681,2.11583 0.0441,0.127949 0.201162,0.252982 0.358365,0.285273 0.07226,0.01484 0.33423,0.02731 0.582163,0.02769 l 0.450787,7.51e-4 v 0.313093 0.313092 l -0.14459,0.01363 c -0.253212,0.0239 -0.989823,0.01856 -1.139053,-0.0082 z m 33.651351,-0.0118 c -0.668361,-0.135117 -0.919268,-0.512942 -0.926641,-1.395376 -0.0013,-0.153233 -0.003,-0.624227 -0.0039,-1.046659 l -0.0013,-0.768053 h -0.459258 -0.459292 v -0.331316 -0.331318 h 0.459292 c 0.252611,0 0.460027,-0.01022 0.460924,-0.02258 8.81e-4,-0.01243 0.0065,-0.198791 0.01232,-0.414145 0.0058,-0.215358 0.01278,-0.455936 0.01537,-0.534627 l 0.0047,-0.143066 h 0.391248 0.391249 v 0.557214 0.557213 h 0.714451 0.71445 v 0.330706 0.330705 l -0.705947,0.0082 -0.705947,0.0082 0.0086,1.108296 c 0.0081,1.041626 0.01275,1.11542 0.07689,1.226755 0.110372,0.191542 0.211501,0.221005 0.805445,0.234654 l 0.516717,0.01187 0.01065,0.313146 0.01065,0.313144 -0.08505,3.43e-4 c -0.04678,3.41e-4 -0.299394,0.0068 -0.561362,0.01458 -0.337375,0.01012 -0.53694,0.0018 -0.684213,-0.02776 z M 15.128663,53.583572 v -2.60535 l 0.331711,-0.0038 c 0.887444,-0.01011 1.470076,0.0018 1.623454,0.03288 0.442427,0.08981 0.819864,0.33944 1.005517,0.665043 0.223141,0.391335 0.237397,0.503373 0.243011,1.909527 0.0055,1.373814 -0.0074,1.501577 -0.186357,1.859374 -0.157517,0.31479 -0.506046,0.578956 -0.911096,0.690561 -0.182416,0.05026 -0.320269,0.05707 -1.156669,0.05707 h -0.949571 z m 1.774882,1.911687 c 0.195051,-0.04796 0.453323,-0.273174 0.544435,-0.474744 0.07623,-0.168647 0.07773,-0.194244 0.07846,-1.346583 3.87e-4,-0.646067 -0.01163,-1.251137 -0.02678,-1.344608 -0.03842,-0.237287 -0.200636,-0.466459 -0.411965,-0.581971 -0.166288,-0.09089 -0.170285,-0.09144 -0.663421,-0.09144 h -0.49613 l -0.01001,1.935187 -0.01001,1.935191 0.435291,-3.42e-4 c 0.239409,0 0.491466,-0.01398 0.560128,-0.03088 z m 5.633308,-0.910209 c -0.0046,-0.882129 -0.0083,-1.752962 -0.008,-1.935187 l 4.29e-4,-0.331317 0.278292,-0.0087 0.278293,-0.0087 0.02253,0.106382 c 0.0124,0.05851 0.01386,0.12638 0.0034,0.150824 -0.01055,0.02446 -0.0057,0.05185 0.01082,0.06091 0.01657,0.009 0.04056,-0.01424 0.05336,-0.05175 0.06161,-0.18047 0.361584,-0.354344 0.61135,-0.354344 0.265378,0 0.459537,0.137202 0.563348,0.398087 l 0.04455,0.111947 0.08116,-0.127005 c 0.215849,-0.337798 0.543843,-0.462512 0.884741,-0.336412 0.173705,0.06425 0.276481,0.155396 0.355019,0.314821 0.13256,0.269083 0.136036,0.339083 0.131196,2.642999 l -0.0022,0.971362 h -0.338752 -0.338757 l -0.01001,-1.528575 c -0.0097,-1.478371 -0.01224,-1.532033 -0.07973,-1.63399 -0.03836,-0.05798 -0.112814,-0.123835 -0.165439,-0.146342 -0.143998,-0.06159 -0.241603,-0.0011 -0.329419,0.203967 -0.07068,0.165089 -0.07173,0.19604 -0.05558,1.636603 l 0.01649,1.468337 h -0.353049 -0.353048 l -0.0026,-1.513514 c -0.0026,-1.627696 -0.0068,-1.667835 -0.178361,-1.781237 -0.13211,-0.08731 -0.25668,-0.04131 -0.354889,0.131071 -0.07635,0.134019 -0.07654,0.138148 -0.07654,1.649016 v 1.514664 h -0.340216 -0.340212 l -0.0085,-1.603874 z m 15.155442,1.280089 0.0097,-0.323785 0.561356,-3.42e-4 0.561357,-3.43e-4 0.0089,-1.287257 0.0089,-1.287259 h -0.527649 -0.527698 v -0.331318 -0.331314 h 0.918582 0.918581 v 1.611402 1.611403 l 0.14459,0.0039 c 0.07952,0.0023 0.332134,0.0015 0.561356,-0.0015 l 0.416762,-0.0054 v 0.332794 0.332798 h -1.532119 -1.532121 l 0.0097,-0.323789 z m 22.514908,-1.618932 v -1.94272 h 0.340213 0.340216 l 4.29e-4,0.173187 c 3.87e-4,0.09526 0.0097,0.203576 0.0209,0.240714 0.01936,0.06388 0.02549,0.06135 0.114119,-0.04696 0.248474,-0.303674 0.565928,-0.443055 1.004229,-0.440921 0.757585,0.0038 1.19811,0.483371 1.264283,1.376651 l 0.02176,0.293665 h -0.408823 -0.408822 l -0.01623,-0.297997 c -0.01373,-0.252718 -0.02996,-0.318739 -0.106587,-0.43453 -0.172181,-0.260114 -0.411359,-0.35529 -0.732799,-0.291606 -0.231226,0.04581 -0.440736,0.225304 -0.554812,0.475324 -0.07745,0.169724 -0.07877,0.192346 -0.08847,1.505108 l -0.0098,1.3328 h -0.389953 -0.389909 v -1.94272 z m 11.159057,1.62646 v -0.316255 l 0.110575,-0.0011 c 0.06084,-7.51e-4 0.317253,-0.0041 0.569864,-0.0075 l 0.459291,-0.0063 v -1.280116 -1.280088 l -0.518834,-0.0083 -0.518827,-0.0084 v -0.331063 -0.33102 l 0.910077,0.0081 0.910077,0.0081 v 1.611401 1.611403 l 0.561352,0.0015 c 0.507099,0.0011 0.561079,0.0062 0.558522,0.05272 -0.0016,0.02829 -0.0056,0.173392 -0.0085,0.322484 l -0.0056,0.271075 h -1.513966 -1.513963 v -0.316297 z m 7.348662,-1.62646 v -1.94272 h 0.357222 0.35723 v 0.226153 0.226155 l 0.212636,-0.191392 c 0.271064,-0.243991 0.492173,-0.324724 0.891623,-0.325574 0.655966,-0.0015 1.075577,0.326329 1.226793,0.958164 0.03888,0.162505 0.04938,0.499244 0.04985,1.598895 l 4.33e-4,1.393038 h -0.39125 -0.391251 v -1.322583 c 0,-1.206477 -0.0056,-1.338441 -0.06349,-1.503223 -0.118551,-0.337254 -0.319042,-0.487361 -0.650932,-0.487361 -0.216876,0 -0.396589,0.07871 -0.555853,0.24343 -0.240195,0.248432 -0.240475,0.25034 -0.252852,1.736939 l -0.01114,1.332798 H 79.104342 78.714743 Z M 39.07086,51.674853 c -0.135024,-0.02719 -0.330436,-0.175515 -0.385799,-0.292815 -0.06568,-0.139189 -0.05942,-0.33944 0.01455,-0.464526 0.07587,-0.128308 0.306777,-0.240488 0.495012,-0.240488 0.173104,0 0.411244,0.122357 0.485893,0.249659 0.07632,0.13015 0.07481,0.40527 -0.003,0.521684 -0.11529,0.172784 -0.381009,0.271968 -0.606783,0.226486 z m 33.588223,-0.02859 c -0.221927,-0.08902 -0.340212,-0.255603 -0.340212,-0.479068 0,-0.300976 0.253004,-0.507573 0.589407,-0.481289 0.279932,0.02187 0.458531,0.185122 0.486482,0.44468 0.03375,0.313356 -0.192731,0.54293 -0.531019,0.538269 -0.08449,-0.0011 -0.176586,-0.01131 -0.204658,-0.02258 z M 49.84088,49.451434 c -0.102239,-0.01214 -0.258362,-0.133625 -0.342268,-0.266355 -0.02124,-0.03359 -0.141234,-0.06882 -0.368562,-0.108171 -0.186177,-0.03223 -0.420844,-0.09628 -0.524195,-0.143055 -0.584506,-0.264578 -0.884386,-0.424923 -1.020646,-0.545733 -0.13153,-0.116608 -0.169171,-0.18029 -0.267194,-0.451991 -0.06275,-0.173938 -0.175636,-0.429661 -0.250855,-0.568271 l -0.136762,-0.252011 0.0013,-0.395304 c 0.0013,-0.458337 -0.02562,-0.539473 -0.22772,-0.683261 -0.09148,-0.06508 -0.176611,-0.168109 -0.245384,-0.296981 -0.05792,-0.108533 -0.193854,-0.306063 -0.302067,-0.438964 -0.27307,-0.335352 -0.303636,-0.396905 -0.616226,-1.241154 -0.152208,-0.411082 -0.304819,-0.79652 -0.339135,-0.856529 -0.0343,-0.06001 -0.160349,-0.203615 -0.280082,-0.319119 -0.119729,-0.115508 -0.281596,-0.286594 -0.359703,-0.380199 -0.0781,-0.0936 -0.176027,-0.189589 -0.2176,-0.213299 -0.04159,-0.02371 -0.205726,-0.05281 -0.364778,-0.06466 -0.159049,-0.01187 -0.34513,-0.03889 -0.413509,-0.0601 -0.109296,-0.03389 -0.140364,-0.03152 -0.257023,0.01957 -0.222419,0.09743 -0.369258,0.259909 -0.528449,0.584745 -0.171924,0.35082 -0.384905,0.641438 -0.553524,0.755301 -0.104144,0.07033 -0.142607,0.0787 -0.306501,0.06666 -0.153629,-0.01127 -0.228715,-0.03899 -0.416556,-0.153707 -0.319695,-0.195242 -0.976892,-0.709288 -1.188887,-0.929921 -0.294737,-0.30675 -0.380966,-0.500694 -0.452765,-1.018422 -0.102002,-0.735478 -0.163881,-0.871808 -0.56049,-1.234906 -0.171903,-0.157373 -0.390463,-0.387789 -0.485694,-0.512034 -0.09522,-0.124242 -0.267409,-0.320774 -0.382623,-0.436733 -0.133307,-0.13417 -0.264336,-0.31164 -0.360336,-0.488045 -0.08297,-0.152462 -0.164666,-0.284764 -0.181553,-0.294007 -0.09471,-0.05181 -0.461327,-0.08549 -1.709941,-0.156993 -0.457971,-0.02622 -0.457619,-0.02641 -0.486867,0.266074 -0.02038,0.203824 -0.03888,0.258751 -0.107656,0.31964 -0.0627,0.05552 -0.105479,0.0691 -0.17458,0.05542 -0.05034,-0.01001 -0.543163,-0.07221 -1.095161,-0.138298 -2.772273,-0.331974 -2.811281,-0.338144 -2.907573,-0.459856 -0.0737,-0.09316 -0.06592,-0.112942 0.04443,-0.112942 0.05321,0 0.180915,-0.02562 0.283795,-0.05697 0.102885,-0.03134 0.223925,-0.05199 0.268992,-0.04589 0.04507,0.0061 0.380476,0.04587 0.745357,0.0884 0.36488,0.04253 1.046163,0.126322 1.513962,0.186216 0.467794,0.0599 0.888625,0.110129 0.935176,0.111638 0.07736,0.0027 0.08658,-0.01112 0.107286,-0.158499 0.01245,-0.08868 0.03622,-0.173257 0.0528,-0.187944 0.0166,-0.01469 0.325281,-0.0358 0.685982,-0.0469 l 0.655816,-0.02022 0.09119,-0.08553 c 0.07116,-0.06675 0.121092,-0.08534 0.22738,-0.08465 0.225273,0.0015 0.996753,0.14059 1.114769,0.201037 0.08289,0.04246 0.15638,0.136562 0.297236,0.380653 0.110918,0.192197 0.284103,0.428531 0.425268,0.58032 0.130982,0.140842 0.29482,0.331963 0.364078,0.424716 0.06926,0.09275 0.254147,0.278363 0.410862,0.412469 0.17382,0.148743 0.311955,0.296692 0.354211,0.379373 0.100271,0.196179 0.236071,0.68512 0.300751,1.082812 0.0743,0.456816 0.143199,0.606381 0.392047,0.850962 0.213247,0.209594 0.702011,0.577204 1.064566,0.800682 l 0.209444,0.129102 0.09622,-0.09898 c 0.05292,-0.05445 0.200506,-0.28874 0.327968,-0.520659 0.259911,-0.472929 0.390437,-0.612223 0.718959,-0.767244 0.174121,-0.08216 0.229002,-0.0942 0.364448,-0.07992 0.0877,0.0093 0.304895,0.0296 0.48266,0.04527 0.561657,0.04948 0.740399,0.137773 1.023159,0.505454 0.06168,0.08021 0.189734,0.22238 0.284549,0.315921 0.294386,0.290441 0.511633,0.724107 0.818492,1.633861 0.12362,0.366498 0.21775,0.545304 0.415491,0.789242 0.09272,0.11437 0.22356,0.296396 0.290773,0.404503 0.06721,0.108108 0.155302,0.223072 0.195751,0.25548 0.136114,0.109054 0.298609,0.330114 0.337925,0.459716 0.02146,0.07075 0.04332,0.294389 0.0486,0.496973 0.0091,0.353226 0.01472,0.377973 0.134496,0.603261 0.06871,0.129214 0.161765,0.350752 0.206798,0.492315 0.110733,0.348092 0.233672,0.453025 0.768836,0.656236 0.0842,0.03197 0.203686,0.09081 0.265516,0.130755 0.07126,0.04602 0.21451,0.08946 0.391249,0.118608 0.502389,0.08286 0.521199,0.08986 0.674888,0.251226 0.171713,0.180291 0.198055,0.16187 0.198794,-0.139011 3.86e-4,-0.145377 -0.04381,-0.37902 -0.139505,-0.737933 -0.129226,-0.484689 -0.138367,-0.546598 -0.118493,-0.802501 0.03411,-0.439567 0.2421,-1.067856 0.507955,-1.534605 0.331283,-0.581611 1.084587,-1.232225 1.789126,-1.545234 0.368477,-0.163699 0.554941,-0.288398 1.013874,-0.678034 0.359773,-0.305455 0.48832,-0.467217 0.567566,-0.714234 0.07571,-0.235992 0.180421,-0.307453 0.419063,-0.286016 0.163833,0.01473 0.203043,0.0042 0.505058,-0.135733 0.435226,-0.201633 0.674078,-0.281894 0.970721,-0.326189 0.343281,-0.05127 0.512891,-0.02529 0.986492,0.151073 0.462498,0.172228 0.805002,0.260371 0.851562,0.219152 0.01683,-0.01488 0.06484,-0.08722 0.106716,-0.160743 0.133132,-0.233699 0.483021,-0.314234 0.743723,-0.171179 0.20617,0.113133 0.833975,0.66191 0.909465,0.794983 0.08548,0.150685 0.276451,0.265765 0.396703,0.239046 0.04588,-0.01022 0.158346,-0.07744 0.249903,-0.149432 0.206025,-0.161993 0.307934,-0.187803 0.471021,-0.119291 0.122445,0.05145 0.123831,0.05128 0.176629,-0.02172 0.09283,-0.128354 0.266632,-0.26935 0.332005,-0.26935 0.06912,0 0.453422,0.245853 0.782454,0.500562 0.223741,0.173201 0.264954,0.189112 0.297202,0.114708 0.04573,-0.1055 -0.118312,-0.246368 -0.386228,-0.331659 -0.09237,-0.02942 -0.232169,-0.102444 -0.310668,-0.162287 -0.138856,-0.105877 -0.142083,-0.112533 -0.119419,-0.246327 0.01463,-0.08636 0.07845,-0.211845 0.171571,-0.33737 0.145277,-0.195822 0.146457,-0.199417 0.05818,-0.177476 -0.139564,0.03468 -0.338319,0.01829 -0.431182,-0.03558 -0.157803,-0.09154 -0.116321,-0.182259 0.240658,-0.526227 0.509655,-0.491083 0.590751,-0.532076 1.105783,-0.558923 0.508819,-0.02653 0.551967,-0.03588 0.667254,-0.14481 0.122243,-0.115501 0.322229,-0.406683 0.404024,-0.588269 0.03201,-0.0711 0.0653,-0.123003 0.07393,-0.115361 0.03803,0.03366 0.178935,0.696868 0.159554,0.750931 -0.01991,0.05557 -0.01022,0.05867 0.130982,0.04154 0.08387,-0.01022 0.334426,-0.07234 0.556781,-0.138132 0.784428,-0.232115 1.298092,-0.293895 1.6642,-0.200151 0.386544,0.09898 1.022314,0.481079 1.217494,0.731727 0.05952,0.07644 0.134622,0.163252 0.16689,0.192937 0.180944,0.16643 0.428577,0.06587 0.913027,-0.370797 0.197622,-0.178126 0.401472,-0.338058 0.453002,-0.355399 0.136242,-0.04586 0.369386,-0.03865 0.555065,0.01717 0.348301,0.104682 0.66403,0.353807 0.988045,0.779597 0.134698,0.177006 0.465226,0.47234 0.82106,0.733631 0.226335,0.166205 0.330809,0.367355 0.401111,0.772354 0.05652,0.325392 0.04385,0.729178 -0.03311,1.054188 -0.05306,0.224221 -0.05074,0.274043 0.01227,0.260198 0.114463,-0.02517 0.307531,-0.0095 0.360372,0.02933 0.0873,0.06409 0.152315,0.227809 0.12732,0.320617 -0.01227,0.04542 -0.06605,0.161905 -0.119648,0.258857 -0.05355,0.09696 -0.09742,0.216561 -0.09742,0.265796 0,0.04923 0.06124,0.192418 0.13609,0.318191 0.07488,0.125769 0.136138,0.243359 0.13621,0.261301 0,0.01796 0.03063,0.07684 0.06781,0.130894 0.05843,0.08483 0.07639,0.09345 0.131448,0.06302 0.08884,-0.04911 0.169003,-0.01356 0.193765,0.0859 0.01146,0.04626 0.06558,0.167108 0.12009,0.268536 0.0545,0.101432 0.09915,0.224352 0.09915,0.273165 0,0.05693 0.04962,0.147411 0.138462,0.25232 0.07615,0.08996 0.213541,0.292591 0.305318,0.450283 0.108986,0.187282 0.199792,0.303944 0.261854,0.336397 0.05227,0.02731 0.198478,0.133628 0.324957,0.236228 0.181781,0.147465 0.257901,0.237897 0.363361,0.431656 0.07335,0.134811 0.144018,0.31742 0.156988,0.405802 0.01299,0.08838 0.04144,0.166751 0.06324,0.174153 0.06301,0.02141 0.537728,-0.184082 0.630907,-0.273134 0.07551,-0.07214 0.08531,-0.109328 0.0904,-0.3424 0.0032,-0.143807 0.03046,-0.362065 0.06068,-0.485024 0.06517,-0.265134 0.07655,-1.145626 0.02084,-1.609508 -0.06005,-0.499413 -0.167368,-0.758115 -0.751614,-1.811413 l -0.384252,-0.692755 -0.01964,-0.346375 c -0.01803,-0.319017 -0.02942,-0.364266 -0.143664,-0.572892 -0.06821,-0.124582 -0.210527,-0.34822 -0.316268,-0.496975 -0.230984,-0.32496 -0.619028,-0.994308 -0.768512,-1.325615 -0.344853,-0.764326 -0.597296,-1.719306 -0.565047,-2.137527 0.02582,-0.334248 0.101206,-0.517919 0.222423,-0.541484 0.05154,-0.01001 0.136715,-0.0038 0.189292,0.01398 0.09344,0.03144 0.09512,0.0361 0.07367,0.204553 -0.01202,0.0948 -0.03623,0.253074 -0.05371,0.351717 -0.03776,0.212732 0.004,0.457222 0.186471,1.084387 0.190631,0.656451 0.534129,1.345283 1.09577,2.197376 0.142293,0.215881 0.309662,0.496583 0.371923,0.623788 0.100431,0.205142 0.113212,0.261786 0.113212,0.501271 v 0.27 l 0.386657,0.704365 c 0.455379,0.829562 0.650611,1.261231 0.747654,1.653127 0.0618,0.249656 0.07102,0.389829 0.07214,1.099369 0.0016,0.786416 -0.0016,0.819907 -0.08117,1.015631 -0.06918,0.169846 -0.07599,0.214975 -0.04225,0.280594 0.06765,0.131469 -0.0082,0.445872 -0.16324,0.676614 -0.158678,0.236131 -0.369494,0.45862 -0.412348,0.435173 -0.01715,-0.0094 -0.03119,-0.08466 -0.03119,-0.167292 v -0.150241 l -0.131376,0.09347 c -0.272098,0.193582 -0.629296,0.218697 -0.823711,0.05792 -0.08597,-0.0711 -0.0978,-0.09768 -0.07527,-0.169158 0.10592,-0.336116 -0.170333,-0.836163 -0.56067,-1.014864 -0.169388,-0.07755 -0.351667,-0.28821 -0.521937,-0.603206 -0.09039,-0.167221 -0.213533,-0.361698 -0.273653,-0.432167 -0.06821,-0.07996 -0.123817,-0.192437 -0.14789,-0.299162 -0.0396,-0.175364 -0.06758,-0.20391 -0.229677,-0.234105 -0.131136,-0.02442 -0.226727,-0.166724 -0.466168,-0.693987 -0.225959,-0.497565 -0.241879,-0.594472 -0.136532,-0.831092 0.03816,-0.0856 0.06356,-0.160704 0.05652,-0.166911 -0.0072,-0.0061 -0.06005,0.0033 -0.11791,0.02119 -0.302512,0.09336 -0.424645,-0.240402 -0.293477,-0.801941 0.04072,-0.174144 0.05082,-0.342637 0.03976,-0.658322 -0.01932,-0.54858 -0.06228,-0.649726 -0.369021,-0.868821 C 70.202689,42.079906 69.934542,41.8322 69.669555,41.515203 69.535513,41.354849 69.36643,41.181994 69.29382,41.131079 69.144398,41.0263 68.897434,40.919872 68.80146,40.918884 c -0.03751,-3.42e-4 -0.222449,0.142052 -0.444653,0.342453 -0.507364,0.457582 -0.791497,0.583599 -1.132558,0.502291 -0.173397,-0.04133 -0.312876,-0.14224 -0.489966,-0.354468 -0.146516,-0.175587 -0.514676,-0.432726 -0.81177,-0.566975 -0.141045,-0.06374 -0.250504,-0.08781 -0.446706,-0.09823 -0.346657,-0.01841 -0.629138,0.029 -1.220056,0.204771 -0.271323,0.08072 -0.585171,0.155385 -0.697441,0.16595 -0.178794,0.01683 -0.224492,0.0096 -0.368189,-0.05881 l -0.164062,-0.07802 -0.142135,0.08881 c -0.16658,0.10409 -0.426294,0.152763 -0.815052,0.152763 -0.2176,0 -0.288112,0.01195 -0.367989,0.06229 -0.109326,0.06892 -0.126998,0.150585 -0.04554,0.210437 0.09592,0.07047 0.15792,0.211579 0.136787,0.311322 -0.01103,0.05215 -0.0813,0.187538 -0.156108,0.300879 -0.158302,0.239823 -0.168834,0.310304 -0.05222,0.349558 0.04609,0.01552 0.182866,0.0836 0.303951,0.151297 0.256758,0.143558 0.360727,0.294233 0.360727,0.522763 0,0.275552 -0.222402,0.48597 -0.51365,0.48597 -0.156321,0 -0.171177,-0.0082 -0.444928,-0.243927 -0.155767,-0.134161 -0.318854,-0.260576 -0.362414,-0.280928 -0.1007,-0.04704 -0.175957,-0.02199 -0.175957,0.05855 0,0.161892 -0.239325,0.391001 -0.408437,0.391001 -0.117965,0 -0.185764,-0.05572 -0.237869,-0.195502 -0.02167,-0.05813 -0.05066,-0.105694 -0.06442,-0.105694 -0.01377,0 -0.06869,0.04034 -0.122046,0.08966 -0.19639,0.181477 -0.503295,0.194213 -0.856914,0.03554 -0.231609,-0.103907 -0.350659,-0.206853 -0.380962,-0.329416 -0.02704,-0.109317 -0.693514,-0.678054 -0.777754,-0.663691 -0.03145,0.0054 -0.06959,0.05592 -0.0867,0.114941 -0.110136,0.3797 -0.650189,0.39637 -1.49661,0.0462 -0.513552,-0.212461 -0.763661,-0.187936 -1.527786,0.14981 -0.243268,0.107523 -0.469348,0.195502 -0.502393,0.195502 -0.153814,0 -0.266563,0.06525 -0.328029,0.189852 -0.115501,0.234147 -0.31069,0.456031 -0.682347,0.775683 -0.404699,0.348065 -0.636207,0.498942 -1.050128,0.684379 -0.343062,0.153692 -0.571237,0.305045 -0.931228,0.617706 -0.349204,0.303286 -0.501729,0.481766 -0.676507,0.791605 -0.236847,0.419881 -0.450954,1.112943 -0.450203,1.457317 3.87e-4,0.09189 0.0634,0.397482 0.140441,0.679101 0.170884,0.624645 0.190484,0.942636 0.07148,1.15961 -0.0409,0.07454 -0.103487,0.151549 -0.139126,0.171126 -0.08057,0.04425 -0.259692,0.06604 -0.403132,0.04903 z m 1.548339,-0.860199 c -0.0034,-0.294044 -0.0073,-0.571897 -0.0085,-0.617454 l -0.0022,-0.08283 0.44228,-0.0033 c 0.243255,-0.0018 4.269705,-0.01218 8.947667,-0.02277 4.677961,-0.01055 8.976158,-0.02791 9.551548,-0.0385 l 1.046169,-0.01924 v 0.63658 0.636588 l -3.257571,0.0079 c -1.791658,0.0042 -6.028614,0.01158 -9.41546,0.01619 -3.386844,0.0045 -6.414348,0.01139 -6.727784,0.01507 l -0.569879,0.0068 -0.0063,-0.534627 z m 24.999228,0.467891 c -0.01155,-0.01022 -0.02101,-0.287853 -0.02101,-0.616928 0,-0.451624 0.01044,-0.601512 0.04248,-0.611351 0.0234,-0.0072 2.208854,-0.02371 4.856574,-0.0367 l 4.814057,-0.02367 -0.0082,-0.662633 c -0.0048,-0.364449 -0.02341,-1.17768 -0.04209,-1.807182 -0.01868,-0.629502 -0.04193,-1.435954 -0.05171,-1.792121 -0.01868,-0.681761 -0.03904,-1.36453 -0.06821,-2.289095 -0.0097,-0.306464 -0.03247,-1.079036 -0.05058,-1.716819 -0.01812,-0.637786 -0.04137,-1.42391 -0.05162,-1.746943 -0.04593,-1.447713 -0.08683,-2.996284 -0.117613,-4.457711 -0.0436,-2.069947 -0.06421,-2.982548 -0.10451,-4.623366 -0.02958,-1.204419 -0.04954,-1.938497 -0.118277,-4.352293 -0.01012,-0.356167 -0.03319,-1.264272 -0.05115,-2.018018 -0.01796,-0.753746 -0.04081,-1.492429 -0.05074,-1.641521 -0.0099,-0.149093 -0.03295,-0.928442 -0.05122,-1.731882 -0.0182,-0.803442 -0.04128,-1.69122 -0.05122,-1.972839 -0.01812,-0.516023 -0.06621,-2.338823 -0.102003,-3.870378 -0.06477,-2.771582 -0.120298,-5.1370598 -0.139536,-5.9486372 -0.01211,-0.5135399 -0.02598,-0.9378093 -0.0307,-0.9428218 -0.01178,-0.012504 -6.638099,-0.00517 -6.786637,0.00753 -0.06549,0.0056 -2.62986,0.018455 -5.698602,0.02857 -3.068744,0.010115 -6.3144,0.025084 -7.21257,0.033251 -0.898165,0.00818 -2.995596,0.021726 -4.660949,0.030131 -1.665354,0.00839 -3.992429,0.021963 -5.171273,0.03012 -1.178849,0.00818 -3.743222,0.022232 -5.698611,0.03126 -1.955389,0.00904 -5.759847,0.029001 -8.454352,0.044378 -2.694506,0.015377 -6.636753,0.035264 -8.760546,0.044195 -2.123793,0.00893 -4.626929,0.022673 -5.562522,0.030539 -0.935593,0.00786 -3.783195,0.023061 -6.328007,0.033778 -2.544813,0.010761 -4.630967,0.022426 -4.635903,0.026009 -0.01451,0.010546 -0.0076,8.39382 0.0071,8.509474 0.0074,0.05798 0.02279,3.182144 0.03433,6.942585 0.01155,3.76044 0.02763,6.932043 0.03571,7.048001 0.0081,0.11596 0.02287,2.284575 0.03292,4.819148 0.01001,2.534569 0.02579,5.42154 0.03506,6.415488 0.0092,0.993949 0.02588,3.060913 0.03695,4.593249 0.01107,1.532339 0.03025,2.794822 0.04267,2.80552 0.0124,0.01076 2.556284,0.02796 5.653094,0.03838 3.096813,0.01044 5.753041,0.02514 5.902738,0.03272 0.149693,0.0076 3.471896,0.02303 7.382673,0.0343 3.910776,0.01127 7.187048,0.02345 7.280611,0.02704 0.09356,0.0038 0.893489,0.0082 1.777624,0.01011 l 1.607515,0.0038 v 0.620807 0.620813 l -4.890586,-0.01852 c -2.689828,-0.01022 -6.092409,-0.02517 -7.561287,-0.03336 -1.468878,-0.0082 -4.928872,-0.02176 -7.688868,-0.03016 -4.703295,-0.01439 -10.556602,-0.04517 -10.569392,-0.05561 -0.003,-0.0027 -0.01468,-1.224489 -0.02567,-2.715397 -0.01094,-1.490944 -0.02747,-3.252929 -0.03669,-3.915565 -0.0093,-0.662631 -0.02506,-3.651258 -0.03528,-6.641388 -0.01022,-2.990127 -0.02481,-5.531472 -0.03249,-5.647436 -0.0077,-0.115959 -0.02347,-3.348554 -0.03506,-7.183539 -0.01158,-3.834987 -0.02678,-7.074358 -0.03369,-7.198603 -0.01416,-0.253449 -0.02236,-10.0351637 -0.0084,-10.0462754 0.0048,-0.00398 2.557975,-0.01542 5.673497,-0.025589 3.115524,-0.010115 6.307595,-0.025148 7.093492,-0.033294 0.785895,-0.00818 2.936909,-0.021662 4.780025,-0.030034 1.843118,-0.00839 4.4228,-0.021974 5.732629,-0.030217 1.30983,-0.00829 3.659865,-0.021802 5.222306,-0.030131 1.562439,-0.00829 4.111501,-0.02192 5.664586,-0.030217 3.395135,-0.018111 7.02761,-0.040095 9.934294,-0.060132 1.178845,-0.00818 3.536536,-0.02164 5.239314,-0.030034 1.702777,-0.00839 4.144676,-0.021985 5.426438,-0.030184 2.774265,-0.017777 6.699704,-0.038223 12.256261,-0.063845 l 4.074075,-0.018789 0.0024,0.3274449 c 0.0016,0.1800936 0.0072,0.3477745 0.01234,0.3726246 0.0056,0.024847 0.0198,0.4721254 0.03214,0.9939491 0.01234,0.5218225 0.03735,1.5451391 0.05547,2.274035 0.01812,0.7288953 0.04825,1.9622968 0.06686,2.7408908 0.01859,0.778593 0.04153,1.666371 0.0509,1.972839 0.0094,0.306466 0.02509,0.963829 0.03495,1.460803 0.0099,0.496975 0.02541,1.134006 0.03463,1.415625 0.0093,0.281619 0.02413,0.735672 0.03319,1.009009 0.0089,0.273337 0.02485,0.876484 0.03535,1.340326 0.01044,0.46384 0.04097,1.548149 0.06781,2.409574 0.04954,1.589003 0.101282,3.511329 0.134951,5.014923 0.01022,0.455561 0.03359,1.316232 0.05203,1.9126 0.03014,0.975728 0.103617,3.938352 0.151994,6.129351 0.01001,0.455562 0.02549,1.031598 0.03431,1.280085 0.0088,0.248488 0.02405,0.81775 0.03391,1.265027 0.0099,0.447277 0.02573,1.023317 0.03535,1.280088 0.0096,0.256768 0.03247,1.036113 0.05082,1.731881 0.01836,0.695764 0.0634,2.17991 0.100055,3.298102 0.03663,1.118192 0.08242,2.609119 0.101713,3.313164 0.01932,0.704049 0.04465,1.507115 0.05643,1.784592 l 0.02132,0.504503 h -1.203464 c -1.334265,0 -5.576004,0.0233 -8.029278,0.04388 -0.872577,0.0073 -1.595959,0.0048 -1.607518,-0.0053 z M 48.163573,38.990586 v -0.512032 h 0.995866 c 1.093916,0 1.327382,-0.02802 1.564036,-0.187846 0.131861,-0.08904 0.285889,-0.326313 0.354166,-0.545575 0.04731,-0.151965 0.110582,-1.31472 0.07154,-1.31472 -0.01022,0 -0.06679,0.06644 -0.125643,0.147636 -0.48705,0.671963 -1.538008,0.874325 -2.51141,0.483584 -0.616388,-0.247432 -0.997899,-0.71739 -1.208435,-1.488605 -0.06874,-0.251775 -0.07431,-0.347469 -0.07453,-1.281111 -3.86e-4,-1.005967 2.5e-5,-1.010002 0.09485,-1.340323 0.16086,-0.560378 0.378334,-0.912449 0.744546,-1.205348 0.223835,-0.179028 0.643748,-0.360892 0.979599,-0.424269 0.498193,-0.09402 1.126434,-0.01882 1.511241,0.180892 0.135115,0.07013 0.437148,0.335213 0.587699,0.515812 l 0.07466,0.08956 0.0043,-0.180718 c 0.0069,-0.290506 0.03661,-0.479959 0.07905,-0.504331 0.02176,-0.01247 0.276823,-0.01931 0.566859,-0.01518 l 0.527332,0.0074 0.0099,2.936668 c 0.01179,3.494438 0.003,3.634834 -0.266607,4.139602 -0.222427,0.416779 -0.571115,0.696979 -1.063689,0.854772 -0.415038,0.132953 -0.691184,0.156088 -1.863109,0.156088 h -1.052198 z m 2.132188,-2.854841 c 0.361366,-0.121561 0.623199,-0.395065 0.767944,-0.802169 0.07087,-0.19932 0.0759,-0.268884 0.07632,-1.056716 3.86e-4,-0.834841 -4.3e-4,-0.845935 -0.09189,-1.09937 -0.233393,-0.647195 -0.615393,-0.898868 -1.31622,-0.86717 -0.629753,0.02848 -1.000882,0.333505 -1.183372,0.972591 -0.04995,0.17497 -0.06034,0.346624 -0.06098,1.009006 -8.83e-4,0.850041 0.02295,1.011614 0.192104,1.305152 0.160503,0.278535 0.524383,0.530397 0.856852,0.593073 0.203785,0.03843 0.558976,0.01297 0.759245,-0.0544 z m -20.078545,1.635557 c -0.612994,-0.119612 -1.046009,-0.387031 -1.353459,-0.835855 -0.205248,-0.299635 -0.271438,-0.521636 -0.288673,-0.968255 -0.01743,-0.451462 0.03455,-0.697345 0.214268,-1.014037 0.307314,-0.541465 0.768743,-0.827507 1.58193,-0.980656 0.186494,-0.03512 0.52828,-0.05196 1.283341,-0.06322 l 1.029154,-0.01537 v -0.276586 c 0,-0.315778 -0.05802,-0.545484 -0.200543,-0.793956 -0.124192,-0.216512 -0.237763,-0.312454 -0.4969,-0.419765 -0.190477,-0.07888 -0.232574,-0.08442 -0.629398,-0.08292 -0.391363,0.0015 -0.440637,0.0082 -0.617984,0.0838 -0.266027,0.113453 -0.444298,0.281063 -0.558173,0.524783 -0.05218,0.111673 -0.104295,0.213138 -0.115806,0.225483 -0.01876,0.02013 -1.08329,-0.02806 -1.180234,-0.05341 -0.05535,-0.01447 0.03721,-0.366266 0.159791,-0.607194 0.285773,-0.56174 0.761648,-0.91918 1.480144,-1.111763 0.275833,-0.07394 0.358489,-0.08199 0.866283,-0.08448 0.652434,-0.0033 0.903972,0.04465 1.375946,0.261723 0.546392,0.251309 0.902471,0.661027 1.07884,1.241369 0.08022,0.263958 0.08513,0.430619 0.105231,3.576713 l 0.0086,1.34786 -0.564945,-7e-6 -0.564939,-5e-6 -0.02167,-0.203304 c -0.01192,-0.111819 -0.0218,-0.301574 -0.02193,-0.421678 -1.28e-4,-0.120099 -0.01176,-0.218368 -0.02584,-0.218368 -0.01407,0 -0.06228,0.06126 -0.107157,0.136139 -0.181163,0.302336 -0.713131,0.64748 -1.160347,0.752837 -0.235422,0.05546 -0.991551,0.05554 -1.275551,0 z m 1.297027,-0.960922 c 0.426156,-0.08099 0.748134,-0.285617 0.945369,-0.600817 0.189439,-0.302746 0.224165,-0.454423 0.224165,-0.979151 v -0.466196 l -0.781937,0.0195 c -0.850083,0.02119 -1.196235,0.06521 -1.487792,0.189156 -0.373447,0.158759 -0.611166,0.532039 -0.580498,0.911528 0.05603,0.693327 0.786687,1.095876 1.680693,0.925974 z m 11.007174,0.94681 c -0.781364,-0.169872 -1.355694,-0.675239 -1.520125,-1.337597 -0.07952,-0.32032 -0.05618,-0.9793 0.04337,-1.224762 0.238367,-0.587714 0.651884,-0.932831 1.369272,-1.142778 0.376065,-0.110061 0.861829,-0.150464 1.816658,-0.151103 l 0.881061,-3.75e-4 -0.02283,-0.312695 c -0.05309,-0.726969 -0.282245,-1.074968 -0.806058,-1.224074 -0.201051,-0.05724 -0.289639,-0.06535 -0.586076,-0.05369 -0.640014,0.02521 -0.963138,0.229607 -1.196406,0.756851 -0.03836,0.08674 -0.06581,0.111294 -0.11118,0.09946 -0.03313,-0.0086 -0.309007,-0.02509 -0.613071,-0.03652 -0.632014,-0.02381 -0.591715,0.0033 -0.485468,-0.328792 0.229668,-0.718265 0.808351,-1.22115 1.65263,-1.436162 0.232149,-0.05913 0.346981,-0.06869 0.814591,-0.06784 0.644996,0.0011 0.900945,0.04404 1.320107,0.221162 0.476677,0.201417 0.816558,0.5199 1.027597,0.962905 0.214304,0.449854 0.21627,0.47551 0.228149,2.978085 l 0.01077,2.266505 h -0.549365 c -0.63658,0 -0.588214,0.02946 -0.593385,-0.361438 -0.0017,-0.12424 -0.01334,-0.285789 -0.02597,-0.358995 l -0.02301,-0.133095 -0.124977,0.166806 c -0.276047,0.368452 -0.697912,0.635524 -1.154338,0.730776 -0.309264,0.06453 -1.028327,0.05794 -1.351939,-0.01243 z m 1.371861,-0.950695 c 0.488317,-0.09158 0.815971,-0.319805 1.030841,-0.718042 0.139934,-0.259346 0.182928,-0.495788 0.170589,-0.938124 l -0.01011,-0.361433 -0.799509,0.008 c -0.439726,0.0044 -0.889911,0.02232 -1.000417,0.03983 -0.74174,0.117504 -1.116234,0.501858 -1.065674,1.093731 0.03206,0.375078 0.23065,0.632548 0.604616,0.78382 0.327621,0.132528 0.688712,0.163662 1.069636,0.09223 z m 11.482864,0.990297 c -0.345251,-0.05787 -0.894282,-0.279685 -1.159798,-0.468589 -0.541254,-0.385081 -0.890998,-1.081352 -0.944206,-1.879723 -0.0343,-0.514572 -0.01588,-1.814851 0.02944,-2.079722 0.105823,-0.618412 0.338217,-1.077357 0.724355,-1.430473 0.497449,-0.454922 1.078522,-0.657522 1.887485,-0.658104 0.962846,-7.51e-4 1.802122,0.413295 2.182958,1.076783 0.284966,0.496456 0.343127,0.77439 0.365507,1.746709 l 0.0182,0.790639 h -1.998857 -1.998858 l 0.02442,0.37975 c 0.04039,0.627473 0.172041,0.934137 0.525398,1.22376 0.290527,0.238132 0.501157,0.306397 0.939318,0.304432 0.386343,-0.0018 0.549349,-0.04344 0.794642,-0.203321 0.167988,-0.109494 0.358199,-0.360565 0.395793,-0.522425 l 0.02274,-0.09789 h 0.631431 0.631439 l -0.02004,0.149821 c -0.06366,0.475816 -0.564267,1.108237 -1.107762,1.399418 -0.387931,0.207844 -0.653077,0.263891 -1.297203,0.2742 -0.308745,0.0048 -0.599634,0.0027 -0.646413,-0.0053 z m 1.888979,-4.099737 c -0.04811,-0.509737 -0.167584,-0.809668 -0.426067,-1.069641 -0.211892,-0.213119 -0.443464,-0.299589 -0.848549,-0.316861 -0.452851,-0.0193 -0.706012,0.05282 -0.983372,0.280151 -0.32496,0.266352 -0.451143,0.535247 -0.497969,1.061172 l -0.0248,0.278608 h 1.401399 1.401396 z m 9.724795,4.073889 c -0.500901,-0.09644 -0.906883,-0.298049 -1.249404,-0.620444 -0.303553,-0.285715 -0.470837,-0.534924 -0.602363,-0.897363 -0.158105,-0.435691 -0.176177,-0.642791 -0.158577,-1.817758 0.01673,-1.117926 0.03125,-1.239469 0.198154,-1.659636 0.285185,-0.717948 0.889304,-1.223869 1.702336,-1.425611 0.342607,-0.08501 1.148965,-0.07668 1.515176,0.01567 0.379799,0.09576 0.75982,0.298501 1.039421,0.554521 0.547808,0.50161 0.740855,1.119992 0.740855,2.373158 v 0.60085 h -1.994927 -1.994924 l 0.02374,0.338291 c 0.03017,0.43004 0.0685,0.588743 0.20685,0.856052 0.198561,0.383675 0.489187,0.593605 0.955776,0.690403 0.426402,0.08846 0.912289,-0.0068 1.189826,-0.233302 0.0963,-0.07859 0.181605,-0.193308 0.257663,-0.346529 l 0.113703,-0.229051 0.594865,0.02111 c 0.327175,0.01161 0.601226,0.02675 0.609003,0.03363 0.04094,0.03625 -0.08241,0.395664 -0.221617,0.645811 -0.224161,0.402798 -0.578055,0.716203 -1.033498,0.915244 -0.17736,0.07751 -0.429637,0.16072 -0.560619,0.184919 -0.297145,0.05489 -1.046476,0.05492 -1.331425,0 z m 1.959632,-4.028708 c -0.0043,-0.681453 -0.325234,-1.206815 -0.84249,-1.379115 -0.163731,-0.05454 -0.249684,-0.06296 -0.551203,-0.05406 -0.304286,0.0089 -0.384991,0.02259 -0.544576,0.09174 -0.471661,0.204427 -0.746533,0.638738 -0.801321,1.266136 l -0.02301,0.263549 h 1.381899 1.381895 l -0.0013,-0.188248 z m -46.618866,3.963952 c -0.01291,-0.01143 -0.02348,-1.936392 -0.02348,-4.277697 V 29.17158 h 0.727675 0.72768 l 0.02133,0.09789 c 0.01176,0.05385 0.293455,0.829799 0.626031,1.724351 l 0.604689,1.626464 0.361727,-0.97889 c 0.533955,-1.444987 0.877352,-2.398596 0.877352,-2.436407 0,-0.02345 0.223071,-0.0334 0.748476,-0.0334 h 0.748473 v 4.261358 4.26136 l -0.07654,0.01675 c -0.0421,0.0093 -0.306193,0.01285 -0.586872,0.0081 l -0.510319,-0.0086 v -3.245399 c 0,-1.784971 -0.01076,-3.245398 -0.02381,-3.245395 -0.0131,3e-6 -0.0795,0.159263 -0.147577,0.353913 -0.06806,0.194649 -0.197716,0.557213 -0.288103,0.8057 -0.09039,0.248487 -0.258353,0.722871 -0.373254,1.054189 -0.1149,0.331317 -0.231907,0.646841 -0.260013,0.701166 l -0.05111,0.09877 -0.428803,-0.0084 -0.42881,-0.0084 -0.216865,-0.572273 c -0.31115,-0.821086 -0.792295,-2.17675 -0.794097,-2.237433 -8.83e-4,-0.0284 -0.02056,-0.09115 -0.04383,-0.139404 -0.03408,-0.07064 -0.04206,0.548533 -0.04099,3.177627 l 0.0013,3.265364 -0.563395,0.0082 c -0.309871,0.0045 -0.573961,-0.0011 -0.586871,-0.01255 z m 12.552855,-7.51e-4 c -0.01261,-0.0112 -0.02258,-1.426918 -0.02206,-3.146071 l 8.83e-4,-3.125727 0.54543,-0.0089 c 0.299986,-0.0048 0.563803,-0.0023 0.586256,0.0061 0.03957,0.01461 0.04638,0.08375 0.05434,0.552998 l 0.0034,0.20662 0.147297,-0.1765 c 0.393544,-0.471572 0.86073,-0.694483 1.520078,-0.725275 0.722088,-0.03374 1.250334,0.132622 1.702653,0.536171 0.388588,0.346691 0.591479,0.760753 0.677313,1.38226 0.02124,0.153793 0.03523,1.094797 0.03523,2.367815 v 2.112596 l -0.331711,0.0162 c -0.182438,0.0089 -0.461842,0.01303 -0.620889,0.0091 l -0.28919,-0.0071 -0.01889,-2.181211 c -0.01686,-1.946787 -0.02519,-2.199794 -0.07754,-2.354165 -0.20158,-0.594438 -0.654164,-0.870336 -1.357677,-0.82765 -0.593562,0.03603 -1.046005,0.388053 -1.222353,0.951075 -0.05764,0.183997 -0.06227,0.356669 -0.06227,2.315386 v 2.116559 h -0.623728 c -0.343049,0 -0.634066,-0.0091 -0.646705,-0.02036 z m 24.396576,0.0038 c -0.01403,-0.01285 -0.02554,-1.437484 -0.02554,-3.165853 v -3.142509 h 0.389245 c 0.214081,0 0.396656,0.01065 0.405724,0.02359 0.009,0.013 0.02713,0.138359 0.04013,0.278603 0.013,0.140252 0.02845,0.259732 0.0343,0.265521 0.0058,0.0058 0.04989,-0.05809 0.09788,-0.141958 0.250349,-0.437377 0.674395,-0.62269 1.179446,-0.515424 0.143701,0.03051 0.217616,0.07054 0.354764,0.192106 0.09529,0.08446 0.209515,0.224713 0.253844,0.311684 0.04432,0.08697 0.08935,0.158078 0.100055,0.158018 0.01065,0 0.04692,-0.05926 0.08049,-0.131539 0.08454,-0.182019 0.332466,-0.400961 0.557186,-0.492042 0.163885,-0.06643 0.222595,-0.07463 0.44859,-0.06268 0.314222,0.01661 0.477368,0.08354 0.681368,0.279467 0.174678,0.167768 0.291982,0.383874 0.370815,0.683152 0.05248,0.199229 0.05815,0.475872 0.05826,2.841133 v 2.620411 h -0.552848 -0.552851 v -2.411569 c 0,-2.44699 -0.01011,-2.672375 -0.127913,-2.849277 -0.141585,-0.212641 -0.479025,-0.180729 -0.616418,0.05829 -0.128544,0.223619 -0.14023,0.463857 -0.14023,2.882342 V 37.7275 l -0.535839,-0.0083 -0.535838,-0.0083 -0.01699,-2.545108 c -0.01648,-2.469013 -0.01906,-2.54871 -0.08505,-2.665358 -0.08382,-0.148122 -0.195236,-0.202906 -0.374181,-0.183994 -0.166812,0.01762 -0.263812,0.109107 -0.347091,0.32732 -0.05521,0.144692 -0.06098,0.358556 -0.07033,2.604858 -0.0096,2.288457 -0.01395,2.447288 -0.06857,2.448178 -0.0321,7.51e-4 -0.265078,0.0088 -0.517689,0.01834 -0.252611,0.0096 -0.470773,0.0069 -0.484806,-0.006 z m 11.709078,0.0042 c -0.0081,-0.0069 -0.01022,-1.430056 -0.0056,-3.162565 l 0.0088,-3.15002 h 0.561049 0.561038 l 0.004,0.368966 c 0.0024,0.20293 0.0024,0.379134 0,0.391553 -0.01155,0.0646 0.06469,0.003 0.200154,-0.161591 0.418072,-0.508261 1.024482,-0.749633 1.783704,-0.709973 0.572999,0.02994 0.976898,0.175249 1.336269,0.480751 0.363931,0.309385 0.553945,0.637377 0.697169,1.203413 0.07776,0.307509 0.07823,0.322612 0.07823,2.523155 v 2.213798 h -0.629401 -0.629392 l -0.01843,-2.153558 c -0.01675,-1.953879 -0.02413,-2.170311 -0.07944,-2.334273 -0.134984,-0.399947 -0.33686,-0.645898 -0.650539,-0.792541 -0.153645,-0.07183 -0.206335,-0.07959 -0.544349,-0.08023 -0.354786,-7.52e-4 -0.385728,0.0044 -0.595374,0.09706 -0.121627,0.05377 -0.260211,0.12874 -0.307946,0.166599 -0.232908,0.184697 -0.456525,0.609335 -0.50895,0.966481 -0.01731,0.118196 -0.03198,1.099292 -0.03263,2.180211 l -8.02e-4,1.965302 h -0.606715 c -0.333694,0 -0.613096,-0.0056 -0.620895,-0.01255 z m 9.052566,-0.0053 c -0.486506,-0.04823 -0.867712,-0.202412 -1.175001,-0.475241 -0.240371,-0.213407 -0.391266,-0.463274 -0.491853,-0.814458 -0.06469,-0.225773 -0.06821,-0.335702 -0.06821,-2.100257 v -1.862013 l -0.739968,-0.0081 -0.739974,-0.0081 v -0.512107 -0.512035 l 0.739974,-0.0081 0.739968,-0.0081 V 30.54183 29.684005 h 0.6294 0.629393 v 0.858412 0.85841 h 1.173743 1.173742 v 0.527094 0.527094 h -1.17525 -1.175257 l 0.01001,1.784592 0.01001,1.784588 0.07855,0.172212 c 0.0929,0.203584 0.3047,0.384126 0.523291,0.446052 0.104176,0.02953 0.368141,0.0429 0.912089,0.04628 l 0.76549,0.0048 0.01699,0.455261 c 0.0094,0.250392 0.0094,0.47931 0,0.5087 -0.01564,0.04919 -0.08469,0.0538 -0.867552,0.05797 -0.467796,0.0027 -0.904128,-7.52e-4 -0.969612,-0.0073 z m -4.142123,-6.267492 c -0.235506,-0.145444 0.07502,-0.540617 0.602682,-0.767025 0.129718,-0.05564 0.236636,-0.109884 0.237606,-0.120512 8.02e-4,-0.01065 -0.03688,-0.02791 -0.08416,-0.03842 -0.04722,-0.01044 -0.146599,-0.06763 -0.220772,-0.126952 l -0.134863,-0.107863 0.140274,-0.177033 c 0.123969,-0.156468 0.138094,-0.19134 0.121605,-0.300202 l -0.01868,-0.12317 0.134301,0.0201 c 0.19407,0.02904 0.274985,-0.03254 0.442995,-0.336972 l 0.144474,-0.261799 -0.325678,-0.274612 -0.325679,-0.274618 0.114991,-0.111079 c 0.06324,-0.0611 0.114502,-0.135 0.11391,-0.164233 -0.0024,-0.12022 -0.254087,-0.473391 -0.407187,-0.571441 -0.374841,-0.240075 -0.476693,-0.380223 -0.561496,-0.772603 -0.02629,-0.121723 -0.07928,-0.328609 -0.117645,-0.45975 -0.04401,-0.150301 -0.06661,-0.310811 -0.06108,-0.434231 0.01114,-0.249589 -0.02396,-0.284679 -0.450544,-0.450643 -0.177757,-0.06915 -0.342336,-0.139761 -0.365727,-0.156895 -0.0574,-0.04204 -0.05643,-0.264734 0.0016,-0.264734 0.02405,0 0.157685,0.03306 0.296966,0.07343 0.13928,0.04039 0.258615,0.06868 0.265189,0.06285 0.0065,-0.0058 -0.01076,-0.04226 -0.03848,-0.08096 -0.09331,-0.130248 -0.193164,-0.565889 -0.193164,-0.842689 0,-0.327425 0.04706,-0.53085 0.176587,-0.763799 0.152811,-0.274764 0.221429,-0.322398 0.384556,-0.26698 0.08163,0.02773 0.207025,0.294079 0.253326,0.538058 0.02204,0.115959 0.06846,0.312491 0.103143,0.436734 0.03472,0.124244 0.07319,0.300443 0.08555,0.391557 0.03367,0.248951 0.03864,0.256606 0.268637,0.416648 0.267,0.185763 0.326238,0.291901 0.333501,0.597555 0.0032,0.129668 0.01234,0.247113 0.02052,0.260987 0.03455,0.05849 0.279393,-0.898645 0.279393,-1.092352 0,-0.207659 -0.02068,-0.252004 -0.207393,-0.444594 -0.123657,-0.127543 -0.293485,-0.390031 -0.448589,-0.693319 -0.109372,-0.213878 -0.127159,-0.279978 -0.131656,-0.489542 -0.004,-0.195762 0.0065,-0.25383 0.05627,-0.302423 0.102272,-0.100044 0.170952,-0.07406 0.272107,0.10295 0.07848,0.137303 0.130054,0.182548 0.326224,0.286136 0.128161,0.06767 0.238839,0.123049 0.245958,0.123049 0.0072,0 0.05227,-0.08471 0.100356,-0.188247 0.267242,-0.575605 0.320676,-0.820347 0.260852,-1.194767 -0.03695,-0.231199 -0.05115,-0.262134 -0.160883,-0.351167 -0.133043,-0.107908 -0.146919,-0.195942 -0.07383,-0.468166 0.05467,-0.203584 0.177228,-0.30796 0.475002,-0.404605 0.694548,-0.225419 1.377208,-0.580634 1.675576,-0.871872 0.104832,-0.102325 0.38539,-0.473689 0.483835,-0.640424 0.05147,-0.08719 0.116947,-0.170083 0.1455,-0.184231 0.02854,-0.01413 0.183778,-0.01938 0.344934,-0.01164 0.272619,0.01312 0.305847,0.0081 0.477415,-0.07211 0.239649,-0.112007 0.2588,-0.160848 0.06308,-0.160848 -0.169829,0 -0.229365,-0.0396 -0.825827,-0.549335 l -0.340219,-0.290743 -0.02477,-0.250125 c -0.01362,-0.137567 -0.03439,-0.323691 -0.04625,-0.413607 -0.02509,-0.19128 0.03279,-0.550044 0.126702,-0.785285 0.03632,-0.09111 0.08866,-0.258847 0.11621,-0.372747 0.088,-0.363843 0.18025,-0.476519 0.554338,-0.677151 0.311105,-0.16686 0.402729,-0.287785 0.431931,-0.570063 0.02317,-0.223573 0.08534,-0.388 0.164908,-0.435823 0.02076,-0.01249 0.101443,-0.02019 0.179273,-0.0171 0.239111,0.0095 0.529134,-0.141545 0.911526,-0.474621 l 0.332285,-0.289433 -0.05908,-0.11598 c -0.07151,-0.140314 -0.162856,-0.219707 -0.354945,-0.308355 -0.121373,-0.05601 -0.157797,-0.09536 -0.223016,-0.240905 -0.102282,-0.228237 -0.13031,-0.254296 -0.299442,-0.278378 -0.227497,-0.03239 -0.285486,-0.08111 -0.330048,-0.277251 -0.08581,-0.377693 -0.447739,-1.584465 -0.493935,-1.646883 -0.06974,-0.09418 -0.236652,-0.197154 -0.353047,-0.217764 -0.100603,-0.01781 -0.101572,-0.01734 -0.520477,0.252429 -0.144731,0.09321 -0.232235,0.08552 -0.339723,-0.02985 -0.05964,-0.06397 -0.102627,-0.08767 -0.123528,-0.06804 -0.04971,0.04666 -0.27173,0.756555 -0.315586,1.009009 -0.02525,0.145303 -0.03102,0.377146 -0.0162,0.64984 0.02509,0.462446 -0.02413,0.770967 -0.155192,0.972643 -0.03623,0.05579 -0.08129,0.164925 -0.100087,0.242516 -0.05322,0.219564 -0.140788,0.320086 -0.361367,0.414715 -0.181468,0.07784 -0.201709,0.09675 -0.250848,0.234251 -0.03704,0.103596 -0.08409,0.166222 -0.1531,0.203732 -0.190774,0.103693 -0.650948,0.209429 -1.749691,0.402041 -0.608134,0.106608 -1.141053,0.200976 -1.18426,0.20971 -0.193349,0.03908 -0.466289,0.340795 -0.789033,0.872245 -0.195722,0.322285 -0.302905,0.471099 -0.385471,0.535182 l -0.06862,0.05327 0.07648,0.09155 c 0.156603,0.187525 0.240916,0.395125 0.241261,0.594047 3.93e-4,0.238554 -0.03936,0.305267 -0.328036,0.54972 -0.438488,0.371356 -0.688631,0.455144 -1.389712,0.46551 -0.487387,0.0072 -0.796473,0.05475 -1.097196,0.168753 -0.161838,0.06136 -0.172451,0.08794 -0.08099,0.202908 0.353936,0.44492 0.254216,0.804569 -0.351858,1.268963 -0.151449,0.116046 -0.173397,0.12362 -0.303241,0.104618 -0.07695,-0.01127 -0.151448,-0.02648 -0.165485,-0.03385 -0.05996,-0.03141 -0.01146,-0.111392 0.218263,-0.360191 0.373438,-0.404443 0.400011,-0.445006 0.369654,-0.564187 -0.01427,-0.05612 -0.07776,-0.168101 -0.141075,-0.248839 -0.09086,-0.115892 -0.115087,-0.176563 -0.115103,-0.288195 -2.4e-5,-0.12066 0.0174,-0.157463 0.119047,-0.250959 0.143857,-0.132367 0.171408,-0.146163 0.52281,-0.261825 0.250231,-0.08236 0.330384,-0.09313 0.838052,-0.112552 0.439091,-0.0168 0.603806,-0.03512 0.756263,-0.08419 0.27784,-0.0894 0.525834,-0.249177 0.67838,-0.437073 0.06749,-0.08319 0.06749,-0.08328 -0.0048,-0.276327 -0.03992,-0.106211 -0.0957,-0.210092 -0.123945,-0.230847 -0.07639,-0.05615 -0.148932,-0.194221 -0.148932,-0.283565 0,-0.100324 0.04834,-0.181099 0.195329,-0.326628 0.06461,-0.06395 0.138999,-0.161891 0.165316,-0.217643 0.02629,-0.05575 0.142727,-0.254175 0.258712,-0.440938 0.162767,-0.262104 0.269462,-0.391108 0.467684,-0.56547 0.306087,-0.269247 0.376067,-0.295104 1.141365,-0.421719 0.966077,-0.159834 2.111564,-0.388894 2.142505,-0.428432 0.0032,-0.0045 0.03591,-0.08259 0.07191,-0.173445 0.0614,-0.15499 0.07839,-0.170811 0.27533,-0.256277 0.115431,-0.0501 0.218558,-0.09879 0.229188,-0.108187 0.01055,-0.0094 0.03495,-0.08997 0.05403,-0.179049 0.01908,-0.08907 0.07279,-0.246219 0.119312,-0.349215 0.0796,-0.1762 0.08464,-0.220781 0.08488,-0.754403 3.84e-4,-0.661453 0.02028,-0.792509 0.203657,-1.336438 0.188868,-0.560188 0.259697,-0.706835 0.361174,-0.747767 0.159521,-0.06434 0.285821,-0.04217 0.406849,0.07143 l 0.112418,0.105532 0.214799,-0.118606 c 0.262536,-0.14496 0.362858,-0.168778 0.518899,-0.123186 0.156138,0.04561 0.497039,0.268223 0.60799,0.397011 0.06293,0.07309 0.14005,0.281985 0.281614,0.763237 0.1072,0.364432 0.212707,0.736535 0.234447,0.826893 0.03511,0.145828 0.05115,0.166945 0.142511,0.187911 0.156986,0.03602 0.410873,0.251188 0.49105,0.416168 0.04513,0.09283 0.09698,0.151191 0.144105,0.162111 0.123313,0.02858 0.386505,0.251461 0.463748,0.39272 0.04971,0.09092 0.07504,0.199965 0.07952,0.342889 0.008,0.243329 -0.0145,0.274889 -0.325061,0.462133 -0.107588,0.06487 -0.195625,0.129918 -0.195625,0.144558 0,0.04825 -0.309197,0.301472 -0.470818,0.385581 -0.08723,0.04539 -0.258095,0.111171 -0.379723,0.146176 l -0.221132,0.06365 -0.01989,0.177312 c -0.03431,0.306444 -0.203705,0.51284 -0.615652,0.750218 -0.261839,0.150884 -0.27844,0.172404 -0.336277,0.436103 -0.02357,0.107678 -0.06124,0.222885 -0.08351,0.256016 -0.02229,0.03313 -0.06798,0.197651 -0.101508,0.365598 -0.04978,0.249339 -0.05379,0.330523 -0.02196,0.442543 0.02148,0.07546 0.03904,0.225093 0.03904,0.332534 0,0.218564 0.03086,0.263212 0.233036,0.337093 0.0683,0.02494 0.219417,0.13568 0.335794,0.246042 0.210504,0.199612 0.322152,0.245394 0.178271,0.07311 -0.0824,-0.09867 -0.07246,-0.234117 0.01948,-0.265349 0.112779,-0.03832 0.223754,0.0255 0.388396,0.223444 0.275811,0.33155 0.29824,0.591119 0.07295,0.843777 -0.18623,0.208814 -0.652872,0.372945 -0.984603,0.346316 l -0.20457,-0.01642 -0.05034,0.106651 c -0.265893,0.563387 -1.058575,1.160057 -1.91059,1.438149 -0.461376,0.150595 -0.578612,0.206642 -0.56969,0.272367 0.0048,0.03512 0.03872,0.08632 0.07551,0.113766 0.102809,0.07675 0.184755,0.567383 0.161524,0.967063 -0.01547,0.266055 -0.04097,0.376153 -0.156731,0.676904 -0.07607,0.197543 -0.153965,0.373065 -0.173148,0.39005 -0.01915,0.01698 -0.03487,0.05189 -0.03487,0.07756 0,0.06401 -0.187953,0.410797 -0.237204,0.437746 -0.02308,0.01262 -0.126078,-0.03742 -0.244347,-0.118752 -0.112458,-0.07732 -0.227706,-0.148464 -0.256123,-0.158115 -0.07936,-0.02698 0.01651,0.113201 0.261798,0.382784 0.113059,0.124243 0.245493,0.298887 0.294304,0.388096 0.08362,0.152846 0.08763,0.180641 0.06934,0.481917 -0.01652,0.271623 -0.05002,0.412589 -0.223233,0.937165 -0.259777,0.786874 -0.294295,0.869866 -0.403867,0.971116 -0.104327,0.09642 -0.178447,0.08914 -0.324364,-0.03182 -0.130197,-0.10793 -0.158045,-0.226136 -0.190358,-0.807912 l -0.02805,-0.505803 -0.130309,-0.09139 c -0.07167,-0.05026 -0.181237,-0.13641 -0.243482,-0.19143 -0.141957,-0.125484 -0.143352,-0.08735 -0.0093,0.255812 0.06926,0.177285 0.113845,0.366273 0.133805,0.567095 0.04088,0.411262 0.239962,1.06524 0.346384,1.137784 0.04369,0.02975 0.148258,0.09821 0.232459,0.152139 0.08574,0.05492 0.20098,0.170376 0.261942,0.262471 0.05988,0.09043 0.170864,0.252477 0.246656,0.3601 0.161356,0.229097 0.175424,0.333538 0.05275,0.391659 -0.04681,0.02217 -0.08473,0.05495 -0.08433,0.07286 3.93e-4,0.01793 0.0862,0.08678 0.190647,0.153037 0.231264,0.146712 0.287986,0.23724 0.291642,0.46545 0.0024,0.145888 -0.01924,0.215207 -0.127721,0.4095 -0.158174,0.283408 -0.249012,0.382758 -0.441055,0.482393 -0.243241,0.126198 -0.248763,0.144821 -0.08859,0.298651 0.16518,0.158651 0.183593,0.285675 0.06781,0.467997 -0.0558,0.08787 -0.131809,0.140849 -0.330056,0.229994 -0.236707,0.106436 -0.442521,0.254066 -0.592262,0.424814 -0.0687,0.07835 -0.147728,0.08362 -0.255489,0.01709 z m -0.09124,-6.493063 c -0.01283,-0.05384 -0.04441,-0.211177 -0.0703,-0.349637 -0.02589,-0.138464 -0.05771,-0.26045 -0.07062,-0.271078 -0.05331,-0.04384 0.01378,0.49676 0.07504,0.604916 0.07848,0.138498 0.09594,0.142698 0.06589,0.01582 z m -54.20754,5.980974 c -0.02361,-0.0084 -0.0818,-0.08805 -0.129312,-0.17695 -0.11348,-0.212371 -0.199368,-0.271754 -0.736842,-0.509455 -0.345598,-0.152843 -0.489157,-0.2348 -0.610853,-0.348728 -0.225662,-0.211266 -0.258014,-0.355302 -0.185158,-0.824441 0.104994,-0.676141 0.07645,-0.8461 -0.240809,-1.433523 -0.664717,-1.230763 -0.734435,-1.491805 -0.505766,-1.893799 0.06665,-0.117187 0.1212,-0.232013 0.1212,-0.255164 0,-0.02315 -0.07782,-0.128286 -0.172945,-0.233635 -0.09513,-0.10535 -0.196567,-0.239222 -0.225433,-0.297505 -0.07705,-0.155561 -0.07448,-0.712783 0.0044,-0.953482 l 0.06058,-0.184882 -0.139539,-0.204826 c -0.07675,-0.112654 -0.191274,-0.351248 -0.254507,-0.530213 -0.06645,-0.188075 -0.177701,-0.417338 -0.263627,-0.543283 -0.145771,-0.213656 -0.148608,-0.222899 -0.145728,-0.474631 0.0022,-0.169173 0.03506,-0.374868 0.09717,-0.603109 0.131575,-0.483604 0.12884,-0.681266 -0.01313,-0.94823 -0.138908,-0.261213 -0.21127,-0.498257 -0.210488,-0.689509 4.28e-4,-0.171823 0.103154,-0.369296 0.330761,-0.637557 0.337419,-0.397685 0.391412,-0.590746 0.384708,-1.375489 -0.0093,-1.078602 0.08164,-1.427365 0.533525,-2.048086 0.213069,-0.292677 0.244908,-0.354412 0.407368,-0.78985 0.08077,-0.216494 0.231243,-0.606495 0.334376,-0.866669 0.221788,-0.5595 0.527024,-1.628363 0.651927,-2.282908 0.08108,-0.424912 0.08695,-0.509808 0.06521,-0.94496 -0.02314,-0.463491 -0.04956,-0.617618 -0.170983,-0.9977585 -0.04922,-0.1540902 -0.05203,-0.2134496 -0.01906,-0.4028417 0.0918,-0.5277195 0.34638,-0.6335305 0.764477,-0.3177504 0.164503,0.1242477 0.418608,0.2313037 0.817547,0.3444386 0.171362,0.048596 0.413801,0.1429469 0.538752,0.2096656 0.124956,0.066718 0.235002,0.1213079 0.244552,0.1213079 0.0096,0 -0.0062,-0.0576 -0.03516,-0.1280087 -0.03922,-0.095622 -0.04739,-0.1911397 -0.03223,-0.3775025 0.01557,-0.1911419 0.0083,-0.2700409 -0.03103,-0.3373504 -0.06587,-0.1127701 -0.06596,-0.3300103 -1.28e-4,-0.4131577 0.07098,-0.089703 0.26001,-0.1390547 0.434371,-0.1133964 0.147895,0.021759 0.897702,0.1636208 1.589803,0.3007762 0.391361,0.077554 0.573344,0.1125021 1.496947,0.2874444 0.271322,0.051394 0.761236,0.145352 1.088689,0.2088015 1.120932,0.2171973 3.212069,0.5568576 5.001169,0.8123351 0.589421,0.08417 1.163536,0.166339 1.275806,0.182603 0.749909,0.108627 3.560492,0.4221 4.439813,0.495187 0.308745,0.02567 0.722104,0.06013 0.918581,0.07661 0.196472,0.01647 0.517976,0.04321 0.714452,0.05941 0.416806,0.03438 1.91542,0.137813 2.62269,0.181008 0.269653,0.01648 0.696959,0.04304 0.949569,0.05905 2.073023,0.131362 4.469344,0.203441 7.297621,0.219504 l 1.36086,0.0077 0.01001,-0.218275 c 0.0095,-0.20671 0.01524,-0.220675 0.108884,-0.263548 0.135372,-0.06197 0.231599,-0.05619 0.390441,0.02345 0.175903,0.0882 0.271254,0.217817 0.37582,0.510868 0.116326,0.326005 0.133059,0.347561 0.29769,0.383577 0.07921,0.01734 0.258839,0.06538 0.399176,0.106791 0.306711,0.0905 0.357739,0.0919 0.549134,0.015 0.22708,-0.09122 0.523826,-0.08172 0.786961,0.02519 0.116539,0.04735 0.249001,0.121898 0.294363,0.165658 0.04537,0.04377 0.10224,0.07956 0.126394,0.07956 0.09033,0 0.361593,0.09698 0.561722,0.200816 0.243328,0.126254 0.395089,0.135977 0.609689,0.03905 0.158078,-0.0714 0.306325,-0.08193 0.480086,-0.03411 0.06208,0.01709 0.243014,0.0403 0.402063,0.05157 0.418938,0.0297 0.745216,0.09023 0.846872,0.157107 0.0971,0.06388 0.132921,0.207177 0.07553,0.302111 -0.01883,0.03118 -0.257907,0.175212 -0.531233,0.32006 -0.454564,0.240887 -0.542517,0.302728 -1.030937,0.724854 -0.293686,0.253822 -0.522776,0.471606 -0.509089,0.483965 0.01369,0.01235 0.113201,-0.0084 0.221141,-0.046 0.417444,-0.145656 0.744365,-0.240388 0.831687,-0.241003 0.125205,-8.81e-4 0.232115,0.125278 0.232115,0.273923 0,0.09946 0.01245,0.118607 0.08796,0.135389 0.135693,0.03015 1.007229,-0.373122 1.300941,-0.60197 0.124917,-0.09732 0.311321,-0.232434 0.414239,-0.300239 0.102918,-0.0678 0.239127,-0.162322 0.302691,-0.210038 0.166975,-0.12534 0.402179,-0.205789 0.607015,-0.20762 0.331766,-0.003 0.37522,0.138246 0.116939,0.380019 -0.09026,0.0845 -0.20445,0.224728 -0.253757,0.311638 l -0.08965,0.158018 h 0.153049 c 0.192459,0 0.370734,0.07954 0.612265,0.273187 0.172065,0.137954 0.198063,0.148963 0.30847,0.130625 0.06944,-0.01154 0.175654,-0.004 0.250431,0.01792 0.172374,0.05036 0.258637,0.02689 0.492853,-0.134125 0.114983,-0.07905 0.268667,-0.152386 0.370546,-0.176825 0.290618,-0.06972 1.019992,-0.201137 1.116314,-0.201137 0.09713,0 0.231505,0.120853 0.231505,0.208198 0,0.02721 0.02381,0.0796 0.05297,0.116416 0.05873,0.07424 0.211874,0.08607 0.491381,0.03798 0.0842,-0.0145 0.199025,-0.01833 0.255164,-0.0085 0.22726,0.03968 0.847889,0.733514 0.826641,0.924159 -0.01524,0.136749 -0.117737,0.166568 -0.574316,0.167081 -0.216747,2.4e-4 -0.403945,0.0091 -0.415995,0.01984 -0.02129,0.01884 0.215291,0.130627 0.591552,0.279501 0.824989,0.326421 0.973377,0.420243 1.085951,0.686616 0.0397,0.09395 0.06376,0.200638 0.05342,0.237068 -0.01033,0.03644 0.003,0.120632 0.0294,0.187115 0.02647,0.06648 0.05813,0.227164 0.0703,0.357068 0.03091,0.329824 -0.04151,0.602729 -0.25531,0.962392 -0.26059,0.438359 -0.139673,0.439981 0.166288,0.0023 0.134771,-0.19282 0.307789,-0.2917 0.510424,-0.2917 0.181966,0 0.368451,0.144144 0.497548,0.384584 0.187211,0.34866 0.427311,0.978954 0.482215,1.265864 0.06422,0.335593 0.03227,0.654471 -0.09006,0.899326 -0.05853,0.117142 -0.07694,0.13258 -0.120201,0.100798 -0.02811,-0.02066 -0.05108,-0.06352 -0.05108,-0.09529 0,-0.03175 -0.03059,-0.110887 -0.06804,-0.17583 -0.05263,-0.09133 -0.06814,-0.178052 -0.06847,-0.382826 -4.28e-4,-0.331844 -0.101282,-0.674676 -0.347757,-1.183395 -0.123273,-0.254423 -0.228153,-0.421676 -0.264416,-0.421676 -0.01807,0 -0.07463,0.0576 -0.125695,0.128007 -0.30003,0.413644 -0.539151,0.564942 -0.796067,0.503696 -0.181137,-0.04318 -0.294125,-0.153271 -0.321166,-0.312932 -0.0288,-0.170056 0.02849,-0.343388 0.191382,-0.579011 0.14632,-0.211638 0.234123,-0.480823 0.234415,-0.718651 3.82e-4,-0.165149 -0.114498,-0.707536 -0.168516,-0.796897 -0.05694,-0.09419 -0.358182,-0.238385 -0.800278,-0.383074 -0.07484,-0.02449 -0.159048,-0.06199 -0.187116,-0.08334 -0.02806,-0.02134 -0.09696,-0.04846 -0.153096,-0.06026 -0.05614,-0.01179 -0.129192,-0.0431 -0.162348,-0.06955 -0.05525,-0.04408 -0.07021,-0.0439 -0.179186,0.002 l -0.118904,0.0502 0.05161,0.109343 c 0.07173,0.151997 0.06837,0.165835 -0.08063,0.331513 -0.122093,0.135755 -0.136792,0.173203 -0.191562,0.48809 -0.05512,0.316883 -0.06552,0.343141 -0.146779,0.370492 -0.127956,0.04306 -0.319487,-0.0057 -0.369207,-0.09395 -0.04073,-0.0723 -0.04175,-0.0717 -0.105791,0.06128 -0.104262,0.216454 -0.258824,1.080836 -0.258294,1.444493 4.31e-4,0.342675 -0.01969,0.282247 0.352059,1.054188 0.130186,0.270357 0.237676,0.676149 0.238692,0.901125 0.0017,0.343738 -0.112227,0.711217 -0.251997,0.813914 -0.04581,0.03366 -0.07003,0.02345 -0.166984,-0.07025 l -0.113407,-0.109614 0.04468,-0.263083 c 0.08814,-0.518938 0.0491,-0.711454 -0.291081,-1.435086 -0.237423,-0.505041 -0.290819,-0.898811 -0.188244,-1.38817 0.02776,-0.132524 0.06627,-0.356163 0.08554,-0.496974 0.05111,-0.373517 0.09712,-0.536236 0.206168,-0.729097 0.129942,-0.229825 0.278351,-0.373787 0.477372,-0.463071 0.09056,-0.04063 0.164663,-0.0893 0.164663,-0.108172 0,-0.01886 0.0376,-0.07796 0.08359,-0.131326 0.06604,-0.07664 0.07946,-0.119609 0.0639,-0.204516 -0.02789,-0.152152 0.0097,-0.254275 0.128985,-0.350761 l 0.103434,-0.08363 -0.106501,-0.06714 c -0.166592,-0.105016 -0.344228,-0.112986 -0.518337,-0.02324 -0.08048,0.04148 -0.230525,0.106307 -0.333438,0.144053 -0.102918,0.03775 -0.248359,0.118706 -0.323205,0.179907 -0.219733,0.179667 -0.290125,0.210535 -0.480104,0.210535 -0.22949,0 -0.292196,0.0506 -0.400946,0.323549 -0.0478,0.119973 -0.117901,0.271913 -0.155784,0.337648 -0.0845,0.146637 -0.08686,0.175617 -0.0094,0.114241 0.119123,-0.0943 0.298108,-0.06501 0.350671,0.05739 0.05452,0.12695 0.03726,0.239102 -0.120321,0.781057 -0.103509,0.356019 -0.15918,0.618449 -0.173558,0.818057 -0.01163,0.161637 -0.04254,0.415872 -0.06861,0.564965 -0.06077,0.347161 -0.05986,0.477603 0.0052,0.756641 0.06101,0.261529 0.03884,0.312609 -0.135772,0.312609 -0.136431,0 -0.243461,-0.0862 -0.289578,-0.233234 -0.05001,-0.159412 -0.04254,-0.631407 0.01557,-0.986615 0.02713,-0.165657 0.04982,-0.389296 0.05048,-0.496974 8.83e-4,-0.10768 0.03335,-0.32454 0.07267,-0.481917 0.121712,-0.487322 0.12121,-0.491932 -0.03107,-0.284152 -0.16277,0.222114 -0.296687,0.322563 -0.395544,0.296701 -0.260736,-0.06821 -0.201468,-0.384917 0.216544,-1.157094 0.147962,-0.273336 0.308385,-0.584134 0.356485,-0.690663 0.117472,-0.260158 0.167045,-0.321231 0.309214,-0.380959 0.08584,-0.03606 0.164919,-0.04533 0.27391,-0.0321 0.150456,0.01826 0.157199,0.01532 0.372155,-0.161712 0.120411,-0.09917 0.241959,-0.180306 0.270117,-0.180306 0.02815,0 0.203076,-0.05421 0.388721,-0.120479 0.39426,-0.140726 0.5577,-0.150852 0.80359,-0.04979 l 0.170108,0.06991 0.09375,-0.06104 c 0.07289,-0.04747 0.161817,-0.06392 0.399755,-0.07399 0.1683,-0.0071 0.305999,-0.02428 0.305999,-0.03811 0,-0.01384 -0.07272,-0.0625 -0.161603,-0.108139 -0.08887,-0.04564 -0.178352,-0.102412 -0.198818,-0.126169 -0.02897,-0.03362 -0.0837,-0.03855 -0.246835,-0.0222 -0.401605,0.04022 -0.726028,-0.09337 -0.77724,-0.320078 -0.01044,-0.04599 -0.0264,-0.08363 -0.03562,-0.08363 -0.0091,0 -0.21545,0.0429 -0.458344,0.09533 -0.272506,0.05882 -0.482704,0.122078 -0.54889,0.165172 -0.365777,0.238161 -0.461051,0.263105 -0.903101,0.236435 -0.378669,-0.02285 -0.550575,-0.07936 -0.77614,-0.255137 -0.184923,-0.144107 -0.355212,-0.193374 -0.521998,-0.151025 -0.199833,0.05074 -0.399333,0.03777 -0.439431,-0.02855 -0.04954,-0.08197 -0.0438,-0.19658 0.01626,-0.323829 0.02833,-0.05999 0.04554,-0.11433 0.03829,-0.120749 -0.0072,-0.0065 -0.09548,0.05382 -0.196068,0.133846 -0.318557,0.253469 -0.445165,0.32794 -0.93219,0.548312 -0.420861,0.190431 -0.502827,0.216971 -0.713625,0.231065 -0.204437,0.01367 -0.259824,0.006 -0.391248,-0.05417 -0.09868,-0.04517 -0.171232,-0.105091 -0.204128,-0.168584 -0.05838,-0.112688 -0.03978,-0.114313 -0.458929,0.04008 -0.210397,0.07751 -0.375966,0.117103 -0.530602,0.126899 -0.212428,0.01346 -0.231075,0.0093 -0.339456,-0.07648 -0.09891,-0.07824 -0.113888,-0.108274 -0.108927,-0.218424 0.008,-0.174947 0.09911,-0.286652 0.629997,-0.77144 0.453486,-0.414102 0.961335,-0.792246 1.182153,-0.880229 l 0.119076,-0.04745 -0.340216,-0.0204 c -0.187116,-0.01122 -0.3817,-0.03488 -0.432406,-0.05257 -0.07278,-0.02539 -0.133011,-0.01973 -0.286004,0.02686 -0.279519,0.08514 -0.497364,0.077 -0.747897,-0.02792 -0.114129,-0.0478 -0.21699,-0.108782 -0.228578,-0.135514 -0.01459,-0.03362 -0.0634,-0.0486 -0.158345,-0.0486 -0.112102,0 -0.190292,-0.03253 -0.426273,-0.177354 -0.403008,-0.247328 -0.453353,-0.2516 -0.924288,-0.07841 l -0.141857,0.05217 -0.567224,-0.174366 c -0.652497,-0.200579 -0.707238,-0.236104 -0.858682,-0.557255 -0.09687,-0.205418 -0.14456,-0.224328 -0.14456,-0.05732 0,0.03118 -0.02961,0.07075 -0.0658,0.08789 -0.08554,0.04053 -3.696597,0.04131 -5.088453,0.0011 -1.713725,-0.04951 -4.8095,-0.212907 -6.583166,-0.347465 -0.777502,-0.05898 -2.654404,-0.215982 -3.044928,-0.254701 -0.556811,-0.0552 -2.81704,-0.30142 -3.198023,-0.34837 -0.702088,-0.08652 -3.671457,-0.528383 -4.956257,-0.737525 C 28.162546,9.8052325 27.953346,9.7679885 26.746936,9.5336516 25.86041,9.361448 24.864193,9.1697767 24.093257,9.023085 23.737733,8.9554312 23.410465,8.8928209 23.366002,8.8839399 c -0.07379,-0.014742 -0.07887,-0.00882 -0.05812,0.068214 0.05131,0.1904628 0.06008,0.3642418 0.02159,0.4279023 -0.03206,0.052998 -0.02846,0.093028 0.01802,0.2007642 0.07255,0.1681891 0.05218,0.4201786 -0.06681,0.8261366 -0.162375,0.553991 -0.209188,0.635854 -0.41372,0.723512 -0.156847,0.06722 -0.228745,0.07353 -0.323947,0.02843 -0.08068,-0.03823 -0.08163,-0.08563 -0.01155,-0.575281 0.05138,-0.358902 0.05109,-0.385144 -0.0052,-0.461059 -0.06777,-0.09158 -0.234439,-0.1744815 -0.457631,-0.2276385 -0.21863,-0.05207 -0.561923,-0.1945603 -0.80169,-0.3327595 -0.113582,-0.065459 -0.215188,-0.1190221 -0.225791,-0.1190221 -0.01055,0 -0.0297,0.061445 -0.04241,0.136543 -0.01708,0.1008621 -0.0052,0.1825176 0.04565,0.3124726 0.03781,0.09676 0.08519,0.3301155 0.105252,0.5185615 0.02009,0.188447 0.05172,0.464615 0.07032,0.613706 0.02172,0.173916 0.02219,0.30633 0.0013,0.369431 -0.0179,0.0541 -0.02407,0.144592 -0.01373,0.201102 0.01065,0.05794 -0.0039,0.161428 -0.03296,0.237313 -0.04767,0.123868 -0.04702,0.141399 0.0081,0.220574 0.03292,0.0473 0.0927,0.111828 0.132796,0.143387 0.08044,0.0633 0.09534,0.166738 0.0321,0.222734 -0.02245,0.01988 -0.102831,0.03616 -0.17861,0.03618 l -0.137788,3.1e-5 -0.09558,0.351241 c -0.05257,0.193182 -0.224586,0.71553 -0.382261,1.16077 -0.492382,1.390406 -0.594338,1.620804 -0.904917,2.04484 -0.420402,0.573978 -0.445344,0.678756 -0.45107,1.894735 -0.003,0.666009 -0.0081,0.71911 -0.08371,0.89907 -0.08359,0.198917 -0.0969,0.22005 -0.397888,0.631572 -0.100787,0.137807 -0.197875,0.297445 -0.21575,0.35475 -0.03326,0.106608 -0.02562,0.131655 0.241838,0.793706 0.09915,0.245446 0.08722,0.543951 -0.03896,0.974949 -0.135852,0.463954 -0.136886,0.632004 -0.0048,0.790947 0.111338,0.13403 0.290617,0.513231 0.344727,0.729123 0.02223,0.08877 0.09297,0.207671 0.188674,0.317153 0.241311,0.276082 0.27143,0.410255 0.146628,0.653144 -0.08302,0.161582 -0.153954,0.554465 -0.121055,0.670511 0.01287,0.04541 0.113901,0.170975 0.224506,0.279027 0.110604,0.108051 0.219252,0.245147 0.24144,0.304662 0.0655,0.17571 0.02528,0.369872 -0.11979,0.577911 -0.114453,0.164165 -0.126912,0.200634 -0.108694,0.318277 0.01133,0.07308 0.197064,0.477422 0.41278,0.898543 0.472849,0.923099 0.538683,1.122644 0.509475,1.544317 -0.01145,0.165661 -0.04295,0.419697 -0.06992,0.564525 -0.0659,0.353691 -0.03756,0.402925 0.318956,0.554268 0.426233,0.180933 0.804247,0.389927 0.932378,0.515489 0.107966,0.105802 0.121638,0.139347 0.141479,0.347119 0.02875,0.301325 0.0046,0.353897 -0.138954,0.302686 z m 4.482747,-4.229147 c -0.352916,-0.03381 -0.812659,-0.157963 -1.138043,-0.30731 -0.490824,-0.22528 -0.968746,-0.714007 -1.173033,-1.199546 -0.150088,-0.356721 -0.231689,-0.960082 -0.129968,-0.961 0.02339,-2.25e-4 0.308294,-0.02045 0.63313,-0.04492 0.324831,-0.02449 0.604235,-0.03708 0.62089,-0.02796 0.01665,0.0091 0.0303,0.06237 0.0303,0.118345 0,0.164455 0.09818,0.491986 0.202128,0.674257 0.313755,0.550202 1.124413,0.82917 1.985601,0.683294 0.495614,-0.08395 0.872618,-0.320107 1.064155,-0.66658 0.09427,-0.170515 0.09887,-0.197805 0.09905,-0.585997 1.29e-4,-0.400723 -0.0017,-0.410375 -0.113248,-0.611242 -0.06239,-0.112252 -0.177215,-0.25885 -0.255165,-0.32578 -0.17488,-0.150159 -0.806628,-0.428526 -1.111335,-0.489686 -0.527136,-0.105801 -1.334185,-0.336547 -1.612164,-0.46093 -0.527105,-0.235853 -0.919984,-0.562647 -1.136253,-0.945123 -0.212047,-0.375007 -0.259843,-0.570438 -0.261011,-1.067198 -0.0013,-0.500311 0.04365,-0.679117 0.27559,-1.09937 0.311763,-0.564878 0.942463,-0.977846 1.715922,-1.123535 0.398802,-0.07512 0.51886,-0.08667 0.90789,-0.08734 0.59751,-0.0011 1.105895,0.105102 1.583745,0.330623 0.292021,0.137822 0.360785,0.183514 0.584582,0.388454 0.389872,0.357031 0.641912,0.90058 0.667902,1.440396 l 0.0087,0.180542 -0.440361,0.03565 c -0.242199,0.01962 -0.536044,0.04379 -0.652993,0.05373 -0.204458,0.01736 -0.212659,0.01541 -0.213226,-0.05054 -0.0026,-0.304888 -0.256495,-0.864971 -0.449975,-0.992728 -0.379096,-0.250317 -0.676798,-0.336885 -1.148447,-0.333954 -0.702985,0.0043 -1.181628,0.23924 -1.425463,0.699483 -0.07924,0.149574 -0.0885,0.203242 -0.0885,0.513411 0,0.321148 0.0069,0.358034 0.09523,0.506434 0.107436,0.180555 0.354559,0.405233 0.537241,0.488439 0.149462,0.06807 0.812226,0.263613 1.272725,0.375496 1.048836,0.254825 1.572753,0.483487 1.976936,0.862841 0.477913,0.448546 0.647031,0.935388 0.615809,1.772705 -0.01107,0.297132 -0.03794,0.532556 -0.07385,0.647573 -0.183357,0.587078 -0.627899,1.072335 -1.209062,1.319798 -0.633723,0.26985 -1.407589,0.369541 -2.245417,0.289262 z m 6.504672,0.0023 c -0.698084,-0.08711 -1.356041,-0.425659 -1.697446,-0.873401 -0.20373,-0.267193 -0.390415,-0.641983 -0.478575,-0.960786 l -0.0883,-0.319303 -0.01326,-1.9126 c -0.0089,-1.280367 -8.81e-4,-2.006918 0.02437,-2.197931 0.106382,-0.805855 0.44619,-1.40742 0.998264,-1.767219 0.27691,-0.180476 0.700509,-0.358004 0.993213,-0.416263 0.528787,-0.105253 1.29926,-0.10536 1.781637,-2.75e-4 0.378828,0.08254 0.875445,0.31174 1.134455,0.523581 0.504921,0.412973 0.808632,1.076426 0.809169,1.767625 l 1.04e-4,0.123324 -0.484808,0.01965 c -0.266644,0.01078 -0.565184,0.01969 -0.66342,0.01972 -0.176357,1.27e-4 -0.178614,-0.0011 -0.178614,-0.09152 0,-0.181807 -0.109381,-0.560298 -0.222492,-0.769877 -0.135317,-0.250719 -0.349174,-0.416617 -0.699549,-0.542656 -0.298574,-0.107405 -0.821696,-0.113296 -1.153274,-0.013 -0.373279,0.112931 -0.638391,0.316429 -0.802397,0.615909 -0.222114,0.405581 -0.223359,0.420955 -0.209338,2.5796 0.01107,1.703848 0.01965,1.964725 0.0701,2.131918 0.183057,0.606671 0.57003,0.933394 1.244944,1.051108 0.240616,0.04198 0.326368,0.04412 0.559499,0.01405 0.439091,-0.05666 0.810444,-0.256733 0.99556,-0.536385 0.191867,-0.289844 0.226097,-0.453806 0.242929,-1.163527 l 0.01554,-0.655098 H 33.895285 33.023989 V 22.7862 22.244044 h 1.513957 1.513963 l -8.81e-4,1.137019 c -3.88e-4,0.625362 -0.01597,1.231894 -0.03468,1.347857 -0.07255,0.449853 -0.285035,0.900302 -0.57715,1.223456 -0.314677,0.348111 -0.725203,0.572913 -1.258837,0.689338 -0.32983,0.07196 -1.225803,0.105705 -1.592301,0.05997 z m 6.643491,3.41e-4 c -0.763631,-0.07102 -1.369212,-0.31739 -1.809235,-0.736038 -0.287876,-0.273891 -0.489567,-0.586191 -0.604853,-0.936567 -0.09767,-0.296798 -0.151547,-0.746244 -0.09329,-0.778118 0.04642,-0.02539 1.23769,-0.110613 1.273375,-0.09109 0.01506,0.0082 0.02768,0.06502 0.02799,0.126165 8.81e-4,0.156038 0.108849,0.504822 0.211686,0.683443 0.116462,0.202296 0.372553,0.420261 0.621258,0.528775 0.774163,0.337832 1.893972,0.169891 2.293246,-0.343877 0.393766,-0.506683 0.29375,-1.422914 -0.191966,-1.758553 -0.32223,-0.222669 -0.693724,-0.357323 -1.522915,-0.552006 -0.880548,-0.206743 -1.403421,-0.422259 -1.818922,-0.749726 -0.522582,-0.411852 -0.786183,-1.041305 -0.738314,-1.762996 0.07484,-1.128362 0.889491,-1.915692 2.181125,-2.107982 0.336885,-0.05015 0.982956,-0.06626 1.231949,-0.03069 0.531688,0.07593 1.038751,0.252876 1.389585,0.484925 0.366747,0.242575 0.662387,0.631634 0.813934,1.071118 0.08064,0.233892 0.163048,0.731729 0.12647,0.764111 -0.0089,0.0079 -0.08632,0.01458 -0.172082,0.01492 -0.08577,3.31e-4 -0.255448,0.01292 -0.377074,0.02799 -0.121629,0.01506 -0.335157,0.03164 -0.474511,0.03681 l -0.253365,0.0095 -0.05709,-0.255798 C 41.222325,20.048719 41.06659,19.738421 40.91452,19.60072 40.642,19.353946 40.218375,19.222298 39.709406,19.226205 c -0.715675,0.0055 -1.21434,0.261227 -1.416506,0.726432 -0.09705,0.223346 -0.105328,0.6682 -0.0167,0.8988 0.07061,0.183754 0.331727,0.453866 0.544507,0.563274 0.165002,0.08484 0.531213,0.195596 1.347827,0.407626 0.889506,0.230956 1.197364,0.346168 1.594675,0.596782 0.396155,0.249884 0.740504,0.696444 0.875386,1.135212 0.08577,0.279016 0.103606,1.045794 0.03218,1.382751 -0.154044,0.726518 -0.683358,1.293475 -1.464127,1.568244 -0.48766,0.17162 -1.336394,0.256212 -1.974851,0.196829 z m 17.879478,-0.0027 c -0.322463,-0.04313 -0.685034,-0.171634 -0.975871,-0.34589 -0.474304,-0.284187 -0.832918,-0.767997 -0.98514,-1.329058 -0.0844,-0.311089 -0.107685,-2.327183 -0.03141,-2.718545 0.137986,-0.70788 0.476975,-1.19784 1.065562,-1.540097 0.42468,-0.246947 0.807625,-0.330995 1.505216,-0.330356 1.007637,7.51e-4 1.552749,0.208806 2.056842,0.784413 0.267328,0.305249 0.419218,0.64837 0.512562,1.15787 0.07234,0.394818 0.07073,2.103658 -0.0022,2.474499 -0.134278,0.681698 -0.482585,1.197836 -1.019552,1.510826 -0.318441,0.185615 -0.549632,0.269154 -0.901135,0.325615 -0.278477,0.04473 -0.927928,0.05042 -1.224774,0.01076 z m 0.957618,-1.002559 c 0.507827,-0.105823 0.840421,-0.446653 0.969394,-0.993412 0.04086,-0.173209 0.04841,-0.41094 0.03842,-1.209528 -0.01172,-0.936362 -0.0169,-1.005877 -0.08963,-1.19982 -0.229448,-0.61204 -0.691197,-0.896981 -1.383963,-0.854031 -0.4099,0.02539 -0.637946,0.111488 -0.883085,0.333338 -0.243001,0.219919 -0.340602,0.421583 -0.415059,0.857592 -0.06864,0.401957 -0.04389,1.829218 0.03652,2.105935 0.217556,0.748715 0.905749,1.131143 1.727425,0.959926 z m 10.988054,1.002911 c -1.025014,-0.161603 -1.725308,-0.787857 -1.968199,-1.760106 -0.05151,-0.206187 -0.0602,-0.399597 -0.0602,-1.340324 0,-1.195597 0.01837,-1.35191 0.213437,-1.818137 0.278098,-0.664631 0.95057,-1.177573 1.708781,-1.303405 0.407406,-0.06761 1.106208,-0.04486 1.490731,0.04853 0.675667,0.164114 1.202333,0.63101 1.450912,1.286235 0.150093,0.395631 0.188339,0.679738 0.188339,1.399159 v 0.658686 h -1.944026 -1.944024 l 0.02416,0.393158 c 0.02871,0.467847 0.07774,0.651868 0.238084,0.894092 0.148482,0.224292 0.308665,0.350993 0.596295,0.471659 0.205489,0.08622 0.250435,0.09342 0.579978,0.09301 0.623637,-7.51e-4 0.930271,-0.161662 1.139163,-0.597702 l 0.09898,-0.206589 0.151161,0.01834 c 0.08314,0.01012 0.350191,0.01834 0.59344,0.01834 h 0.442264 l -0.01987,0.148762 c -0.0109,0.08181 -0.06702,0.247851 -0.124594,0.368966 -0.2843,0.597954 -0.823575,1.029834 -1.481001,1.186057 -0.244053,0.058 -1.103839,0.08382 -1.373762,0.04127 z m 1.850106,-3.951313 c -0.038,-0.347389 -0.07968,-0.506332 -0.184956,-0.705562 -0.128098,-0.242341 -0.333948,-0.437118 -0.55584,-0.525933 -0.153829,-0.06157 -0.230629,-0.07118 -0.569077,-0.07118 -0.351628,0 -0.410608,0.0081 -0.58245,0.07937 -0.344924,0.143183 -0.586987,0.389683 -0.698767,0.71157 -0.0563,0.162132 -0.123578,0.661417 -0.0947,0.702789 0.0109,0.01559 0.596286,0.02731 1.364368,0.02731 h 1.345293 z M 48.707919,22.454816 v -4.156518 h 0.731464 c 0.402304,0 0.731904,0.0033 0.732444,0.0075 0.0022,0.01683 0.922358,2.423106 1.106268,2.892933 0.124114,0.317082 0.20775,0.490606 0.224033,0.464848 0.01429,-0.02261 0.09692,-0.236732 0.183644,-0.47583 0.08671,-0.239103 0.362717,-0.990435 0.613337,-1.669635 l 0.455679,-1.234907 0.702535,0.0062 c 0.38639,0.0033 0.708169,0.01127 0.715062,0.01736 0.0069,0.0061 0.01287,1.873715 0.01326,4.150251 l 8.83e-4,4.139151 -0.597682,0.0082 -0.597677,0.0082 0.01511,-3.200915 0.0151,-3.20092 -0.135067,0.376499 c -0.07428,0.20707 -0.317569,0.876389 -0.540627,1.487372 -0.223064,0.610985 -0.405566,1.129418 -0.405566,1.152081 0,0.03288 -0.09508,0.04119 -0.469957,0.04119 h -0.469957 l -0.08003,-0.248485 c -0.044,-0.136667 -0.213454,-0.600887 -0.376567,-1.031596 -0.313698,-0.828364 -0.59241,-1.586329 -0.62023,-1.686704 -0.0091,-0.03313 -0.01846,1.373082 -0.02064,3.124916 l -0.0039,3.185154 h -0.595341 -0.595378 z m 14.018952,3.592349 c -0.119071,-0.310928 -0.338156,-0.877061 -0.486858,-1.258076 -0.25225,-0.64633 -0.593334,-1.534929 -1.028959,-2.680652 -0.100776,-0.265051 -0.276008,-0.722383 -0.38941,-1.016288 -0.113399,-0.293905 -0.206185,-0.541555 -0.206185,-0.550336 0,-0.0088 0.293798,-0.01229 0.652894,-0.0077 l 0.652888,0.0082 0.347256,0.948771 c 0.892999,2.439847 1.015423,2.777221 1.155098,3.183227 0.08205,0.238513 0.159156,0.480677 0.171331,0.538148 0.02377,0.112274 0.07378,0.162557 0.0976,0.0982 0.0081,-0.02176 0.100388,-0.290303 0.205192,-0.596771 0.220466,-0.64471 0.460571,-1.309907 1.272007,-3.524002 l 0.237324,-0.647573 0.649966,-0.0082 0.649966,-0.0082 -0.02361,0.08348 c -0.01297,0.04592 -0.08333,0.232572 -0.156344,0.414797 -0.07301,0.182226 -0.268147,0.683715 -0.433638,1.114429 -0.165494,0.430712 -0.462592,1.195003 -0.660223,1.698432 -0.197631,0.503425 -0.435826,1.120126 -0.529324,1.370443 -0.0935,0.250318 -0.252761,0.665209 -0.353916,0.92198 l -0.183919,0.466854 -0.711327,0.0081 -0.711333,0.0081 z"
       id="path113" />
  </g>
</svg>
